<svg xmlns="http://www.w3.org/2000/svg" xmlns:xlink="http://www.w3.org/1999/xlink" id="Layer_1" x="0px" y="0px" viewBox="0 0 57.1 57.1" style="enable-background:new 0 0 57.1 57.1;" xml:space="preserve">
<style type="text/css">
	.st0{fill:#003049;}
</style>
<path class="st0" d="M1.6,25.9l0.1-0.2l0.2-0.1l0.1-0.1l-0.2-0.2v-0.2L2,25l-0.2-0.3L2,24.5l-0.2-0.3L2,24l-0.2-0.3l0.2-0.2L2,23.3  l0.1-0.2L2,22.8l0.1-0.4l0.3-0.7c0.2-0.7,0.8-2,1.8-4.1l1.4-3l0.4-0.5l0.5-0.8l1.1-1.1l2.8-2.4l2.2-1.4l1.8-1.1l0.8-0.5l4-2.1  l1.8-0.8L23.7,3l1.8-0.4l3-0.5l1.1-0.2l0.8-0.2h2.4L35,2.1l2.7,0.7l1.7,0.7l2,1l0.8,0.6l1.1,0.7l1.7,1.6l1.8,1.9l4.9,6.7l1.1,2.1  c0.7,1.3,1.1,2.5,1.4,3.6l0.1,0.2l0.3,1.4l0.2,0.6v0.3l0.2,0.3v0.3l0.1,0.7l0.2,1.3l0.1,1.1l0.2,1.2l-0.1,1l-0.1,1.1l-0.2,1.1  L55,33.4l-0.4,1.1l-0.8,1.8L53.4,37l-0.7,0.9l-1.3,1.6l-1.3,1.4l-0.9,1l-1.1,0.9l-3,2.4l-0.7,0.5l-3,1.9l-2.7,1.9L37.5,50l-2.7,1.4  l-4,1.9c-1.4,0.7-2.7,1.1-4,1.4l-1.1,0.2L25,55.1l-1.1,0.2l-1.1,0.1h-1.3l-1.1-0.1L19.6,55l-1.3-0.3l-1.1-0.5l-1-0.4l-1-0.6  l-0.8-0.5L13,51.6l-0.8-0.8l-1.6-1.6l-0.3-0.5l-0.4-0.4L9.7,48l-0.3-0.2l-0.2-0.5L9,47.3l-0.2-0.4l-0.4-0.2l-0.2-0.4L8,46.2v-0.4  l-0.5-0.2l-0.1-0.2L7,44.9l-0.2-0.3c-0.6-0.6-1.1-1.3-1.4-2.1l-1.3-2.6L3.8,39l-0.2-0.3l-0.1-0.3l-0.2-0.2V38l-0.2-0.2l0.1-0.3  L3,37.3V37l-0.2-0.3l0.1-0.2l-0.2-0.2l0.1-0.3l-0.2-0.1l0.2-0.3l-0.3-0.2L2.6,35l-0.2-0.2l-0.1-0.2h0.2l0.1-0.1l-0.2-0.2H2.3  l-0.1-0.2l0.4-0.2l-0.5-0.2l0.4-0.3l-0.4-0.2C2,33.1,2.1,33,2.5,33L2,32.8L2,32.6l0.2-0.1h0.1c0.1-0.1,0-0.1-0.1-0.2L2,32.2v-0.2  L2.3,32l-0.5-0.4l0.4-0.2L2,31.3v-0.1L2.2,31v-0.1c-0.2-0.1-0.3-0.2-0.3-0.2C1.9,30.6,2,30.6,2,30.6h0.2l-0.5-0.5L2,30l-0.2-0.2  l-0.1-0.1l0.3-0.2v-0.1l-0.4-0.3l0.2-0.1l-0.2-0.5h0.1L2,28.5l-0.4-0.4h0.1l0.1-0.1v-0.2l-0.2-0.1l-0.1-0.1l0.2-0.2l-0.2-0.2  c-0.1-0.1,0-0.1,0.2-0.2L1.9,27l-0.3-0.3l0.2-0.2l-0.2-0.3L1.9,26L1.6,25.9z M4.7,24.3L4.7,24.3l-2.1,0.1l0.2,0.3l0.5,0.1v0.1  l-0.5,0.1c-0.1,0.1-0.1,0.1-0.1,0.2c0,0.1,0,0.1,0.1,0.1H3l-0.5,0.2v0.2l0.3,0.1L2.4,26l0.1,0.1l0.3,0.2l-0.4,0.2l0.1,0.2l0.3,0.2  c-0.2,0.1-0.3,0.1-0.3,0.2c0,0.1,0,0.1,0.1,0.2h0.2v0.2H2.6c-0.1,0.1-0.2,0.1-0.2,0.2c0,0,0,0.1,0.1,0.2l0.1,0.1h0.1v0.1L2.4,28  l0.3,0.3v0.5L2.5,29v0.1l0.2,0.2c-0.1,0.1-0.2,0.2-0.2,0.2c0,0.1,0,0.1,0.1,0.1l0.1,0.1L2.6,30l0.1,0.5l0.1,0.2L2.6,31l0.1,0.3  l-0.1,0.2l0.1,0.2l0.1,0.8L2.9,33l0.9,0.2l-0.7,0.2l0.6,0.3h0.1l-0.6,0.2c0,0.2,0.2,0.3,0.5,0.3h0.1L4,34.2l-0.4,0.1H3.4l-0.2,0.2  l1.1,0.2H3.9l-0.6,0.1l0.1,0.2l0.5,0.1l0.8,0.1v0.1h-1l-0.2,0.3h0.4l0.9,0.2l-1.2,0.1c0.1,0.2,0.3,0.2,0.7,0.2h0.8l0.1,0.5l0.1,0.1  l-0.7,0.1H4L3.9,37l0.8,0.1l0.7,0.2l-1.1,0.1l-0.1,0.1c0.1,0.1,0.2,0.1,0.5,0.2l1,0.1l-0.4,0.1H4.7c-0.3,0-0.3,0.1-0.2,0.2l0.3,0.1  l0.8,0.1v0.1l-0.1,0.1c-0.1,0.1,0,0.2,0.2,0.4L5.6,39l0.1,0.1L6,39.2v0.2l0.4,0.2l-0.2,0.2l0.4,0.3v0.3l0.1,0.2V41l0.2,0.3  c-0.1,0-0.2,0.1-0.1,0.2l0.1,0.1h0.4l0.2-0.5v-0.2l-0.1-0.2v-0.2L7,40.2l0.1-0.3L7,39.8l0.1-0.3L7,39.2L7,39L7,38.7L7,38.6L7,38.2  l0.2-0.1l-0.2-0.4L7,37.5l-0.1-0.2L7,37l-0.2-0.2L7,36.6l-0.2-0.4L7,36.1L7,35.9l-0.2-0.2L7,35.5l-0.2-0.2L7,35.1l-0.1-0.1l-0.2-0.2  l0.2-0.3l-0.5-0.3L6.7,34l-0.8-0.3v-0.1L6,33.4l-0.9-0.2v-0.1l0.2-0.1c0,0,0-0.1,0-0.2H3.9l-0.5-0.1l-0.1-0.5v-1.7l0.1-0.2l-0.1-0.7  l0.1-0.5l-0.1-0.5L3.4,28v-0.7l0.1-0.4l0.1-1.1c0-0.4,0.2-0.7,0.5-1c0.1-0.1,0.2-0.2,0.4-0.2c0.1,0,0.2,0.1,0.2,0.2H4.2l0.1,0.3  l0.5,0.2l-0.5,0.1c0.1,0.2,0.2,0.3,0.5,0.4L4,25.9c0.1,0.2,0.2,0.3,0.5,0.3h0.2l0.1,0.1L4,26.4c0.1,0.2,0.3,0.3,0.8,0.4l-0.5,0.1  L4,26.9V27l-0.1,0.2l0.5,0.1l0.4,0.1l-0.5,0.1L4,27.5l-0.1,0.1c0,0.1,0,0.1,0.1,0.2l0.8,0.1C4.6,27.9,4.3,28,4.1,28l0.3,0.2l0.4,0.2  c-0.5,0-0.8,0.1-1,0.3l1,0.2v0.1L3.9,29l-0.1,0.1l0.9,0.2l-0.4,0.1l-0.5,0.1v0.2l0.8,0.2v0.1L4,29.9L3.9,30l0.3,0.2l0.6,0.2  c-0.5,0-0.7,0.1-0.8,0.2l0.8,0.2l-0.7,0.2l-0.2,0.2l0.5,0.1l0.3,0.1l-0.3,0.1c-0.4,0-0.6,0.1-0.6,0.2l1,0.2l-0.5,0.1L4,31.9  l-0.1,0.2l0.8,0.1h0.6l0.2-0.2v-0.2l0.2-0.4H5.6v-0.2L6,31.1l-0.4-0.4l0.3-0.2l-0.1-0.1l-0.2-0.2C5.9,30.2,6,30,5.9,29.9l-0.2-0.2  c0.4,0,0.5-0.1,0.3-0.3l-0.3-0.2v-0.1c0.2,0,0.3-0.1,0.4-0.2l-0.2-0.2l-0.2-0.1v-0.1L6,28.7l-0.1-0.2l-0.2-0.2L5.8,28l-0.1-0.3  c0.1-0.1,0.2-0.1,0.2-0.1c0-0.1-0.1-0.2-0.2-0.3l0.2-0.1L5.9,27l-0.2-0.2l0.2-0.2l-0.2-0.3v-0.1l0.2-0.1C6,26.1,6,26,5.8,25.9  L6,25.6l-0.2-0.3C5.9,25.2,6,25.2,6,25.1c0,0,0-0.1-0.1-0.1l-0.1-0.1l0.2-0.2L6,24.5l-0.3-0.2l0.4-0.2L6,23.9H3.4L2.8,24v0.2L3,24.2  h0.9L4.7,24.3z M2.7,23.7l2,0.1l0.4-0.1l0.6-0.1v-0.2l-0.9-0.1H3.4C3,23.4,2.8,23.4,2.7,23.7L2.7,23.7z M3,23.1l1.5,0.1h0.9l1.3,0.1  h3.6l0.5,0.1l0.5-0.1h2C13,23.1,12.8,23,12.4,23h-1.2l-7.5-0.2C3.3,22.8,3.1,22.9,3,23.1 M3.6,22.4L3.6,22.4l0.7,0.2l0.8,0.1  l0.4-0.1l0.4,0.1l0.5-0.1c-0.1-0.2-0.2-0.3-0.3-0.3c-0.1,0-0.2,0.1-0.3,0.2l-0.1,0.1l-0.8-0.2H4.6L3.6,22.4z M8.6,13.8L8,14.1v0.1  l0.3,0.2v0.1L8,14.6l-0.1,0.3L7.4,15v0.2l0.1,0.1l0.2,0.1v0.1l-0.4,0.1c-0.1,0.1-0.1,0.2,0.1,0.3h0.1C7.3,15.9,7.1,16,6.7,16H6.4  c0.2,0.2,0.5,0.3,0.8,0.3l-0.4,0.2l-0.3,0.1l0.5,0.3v0.1L6.6,17v0.3l-0.5,0.2l-0.3,0.2l0.5,0.2L5.8,18L5.4,18L6,18.3l-0.8,0.2  l0.3,0.3l-0.3,0.1L4.8,19v0.2l0.5,0.2l-0.4,0.1v0.2H5v0.1L4.5,20l0.4,0.3l-0.7,0.2l-0.1,0.2L5,20.8H4.5l-0.3,0.1l-0.1,0.2l0.9,0.2  l-1,0.1l-0.4,0.2l0.6,0.2l0.8,0.1l0.1,0.1l-0.8,0.1L3.7,22l-0.1,0.1l1.3,0.2l0.6-0.1L6,22.2l0.4-0.1l-0.2-0.3l0.2-0.2l0.2-0.1v-0.3  l0.2-0.2L7,20.8l0.7-0.2l0.2-0.4l-0.2-0.4c-0.1,0-0.1-0.1-0.1-0.2c0-0.1,0.1-0.2,0.2-0.4l0.1-0.1V19l-0.2-0.2l0.1-0.2l-0.1-0.3h0.2  L7.8,18l-0.3-0.1v-0.1l1.1-0.2l-0.3-0.2L9,17.2l0.1-0.3l0.2-0.2l0.1-0.3l0.3-0.2L9.6,16l0.1-0.3l-0.2-0.3v-0.7l-0.2-0.6l-0.1-0.2  l-0.2-0.3H8.6L8.6,13.8L8.6,13.8z M3.8,36.6l0.8-0.1c-0.1-0.2-0.2-0.2-0.5-0.2l-0.2,0.1V36.6z M4.1,32.6l0.6,0.1h0.9l-0.1-0.2  l-0.4-0.1C4.5,32.2,4.2,32.3,4.1,32.6L4.1,32.6z M6,23.5l1.5,0.2h0.2l1.7,0.1h2.7l0.5-0.1c-0.2-0.2-0.7-0.2-1.4-0.2l-0.6-0.1h-3  l-0.9-0.1L6,23.5z M8.2,32.9l-0.7-0.1H6.4l-0.1,0.2l0.4,0.1H8L8.2,32.9z M6.6,32.6L7,32.6l0.9,0.1l0.4-0.2l-0.4-0.2L6.6,32.6z   M6.7,41.8c-0.1,0.2-0.1,0.2,0.1,0.2L7,42L6.7,41.8L6.7,41.8z M6.8,31.9c0.1,0.2,0.2,0.2,0.4,0.2H8l0.4-0.1l-0.1-0.2l-0.4-0.1H7.4  L6.8,31.9z M7.2,42.5l-0.1-0.2l-0.2-0.1l-0.1,0.2l0.1,0.1H7L7.2,42.5z M7,42.8L6.9,43L7.4,43L7,42.8z M7.1,24.5l0.5,0.3v0.1  c-0.4,0-0.6,0.1-0.7,0.2l0.3,0.2l0.5,0.2L7,25.6v0.1l0.8,0.2H7.4L7,25.9l0.1,0.3l0.7,0.1l-0.3,0.1l-0.4,0.1L7,26.7l0.8,0.1l-0.8,0.1  v0.2l0.1,0.1l0.7,0.1v0.1H7.4L7,27.5v0.1L8,27.8l-0.8,0.2v0.1l0.7,0.2l-0.7,0.1v0.3l0.3,0.1L8,28.9c-0.5,0-0.7,0.1-0.8,0.2v0.1  L8,29.4l-0.7,0.2v0.1l-0.1,0.1L8,29.8L7.7,30V30l0.2,0.1l-0.1,0.3l0.1,0.2L7.7,31l0.2,0.3l-0.5,0.2l-0.1,0.2l0.3,0.1  c0.2,0.1,0.4,0.2,0.5,0.2c0.2,0,0.3-0.1,0.3-0.2l0.1-0.8l0.1-0.2v-0.3l-0.1-0.5l0.1-0.3v-0.2l0.1-0.2l-0.1-0.2v-1.5l0.1-0.7  l-0.1-0.3L8.6,26l-0.1-0.2l-0.1-0.5l-0.1-0.4l-0.2-0.2L8,24.6c-0.3-0.2-0.5-0.3-0.6-0.3C7.3,24.3,7.2,24.4,7.1,24.5L7.1,24.5z   M12.2,24.3L11.9,24h-1l-3.5-0.1L7.1,24C7.1,24.1,7,24.1,7,24.2c0,0.1,0.2,0.1,0.3,0.1h1.6l0.9,0.1l0.5-0.1H12.2z M7.3,33.4v0.2  L8,33.7l0.6-0.2l-0.4-0.1H7.3z M7.4,30.1L7.6,30H7.4V30.1z M7.7,34l1,0.2v-0.2C8.3,33.8,7.9,33.8,7.7,34 M9,34.6  c-0.1-0.2-0.3-0.2-0.6-0.2l-0.3,0.1C8.1,34.5,8,34.6,8,34.6c0.1,0.1,0.2,0.1,0.4,0.1h0.2L9,34.6z M8.3,22.2L9,22.3h1.4  c0.5,0,0.7-0.1,0.8-0.2V22l-0.8-0.1l-1,0.1H8.9L8.3,22.2L8.3,22.2z M8.3,22.6v0.2l1.8,0.1h0.6l0.5-0.1l0.5,0.1h1.6  c0.3,0,0.4-0.1,0.5-0.2l-0.9-0.1h-0.9l-2.6-0.1L8.3,22.6z M8.4,24.6L8.4,24.6l0.3,0.2h0.8l1.6,0.1l0.6-0.1l0.2-0.1l-0.2-0.1h-0.7  l-1.8-0.1L8.4,24.6z M8.6,21.8l1.8,0.1c0.3,0,0.5-0.1,0.6-0.3v-0.1l-1.8,0.1C8.8,21.5,8.6,21.6,8.6,21.8 M8.6,18.3l1.7,0.1l1.1-0.1  l0.5,0.1h1.2l0.2-0.2L13,18h-0.8L9.6,18C9,18,8.7,18.1,8.6,18.3 M8.6,20.5v0.2l0.8,0.1h0.8l1.1-0.1l2.2,0.2h2v-0.2l-0.9-0.1  l-4.9-0.1L8.6,20.5z M8.7,20.1v0.2l1.4,0.1l1.2-0.1l2,0.1h2.3c-0.2-0.2-0.5-0.3-1-0.3h-0.8l-2.4-0.1l-2,0.1L8.7,20.1z M8.9,21.1  l0.4,0.2h1.1l0.7-0.1l1.2,0.1l2.1,0.1h0.9l0.4-0.2v-0.2L14.5,21h-1.7l-2.9-0.1L8.9,21.1z M8.9,42.6h1.4l1,0.1h1.1l0.4-0.2l-0.1-0.1  l-0.3-0.1H9L8.9,42.6z M9.2,41.8C9,42,9,42.1,9.2,42.1l0.5,0.1l0.5-0.1l0.5,0.1h2.1l-0.1-0.2l-0.5-0.1h-1.1l-0.8,0.1l-0.8-0.1H9.2z   M9.1,19.6v0.2h6.5c-0.1-0.2-0.3-0.2-0.6-0.2h-1l-2-0.1H9.8L9.1,19.6z M9.1,25.3h2l0.7-0.2V25l-2.4-0.1L9.2,25L9.1,25.3z M9.2,18.7  l1.7,0.1h2l0.5,0.1l0.4-0.2l-0.1-0.2l-0.2-0.1h-3l-0.8,0.1L9.2,18.7L9.2,18.7z M9.2,19.1v0.2l1,0.1H11l0.5-0.1l1,0.1h1.6  c0-0.2-0.1-0.3-0.4-0.3H13l-2.1-0.1L9.2,19.1z M11.6,25.6l-0.9-0.2H9.6l-0.4,0.1l-0.1,0.2l0.5,0.1h1.6L11.6,25.6z M9.4,28.9  C9.2,29,9.2,29,9.2,29.1l0.2,0.2h1.7c0.1-0.1,0.1-0.2-0.2-0.3H9.4z M9.2,29.7l1.4,0.1l0.6-0.1c0-0.2-0.2-0.2-0.5-0.2H9.3L9.2,29.7z   M9.2,31c-0.1,0.1-0.1,0.1-0.1,0.2c0,0.1,0,0.1,0.2,0.2h1.3l0.5-0.1V31L10.9,31l-1.2-0.1L9.2,31z M9.2,41.4c0,0.2,0.3,0.2,0.8,0.2  l1.7,0.1l0.9-0.1c-0.1-0.1-0.4-0.2-0.9-0.2l-1.8-0.1L9.2,41.4z M9.2,43h0.2v-0.1L9.2,43L9.2,43z M9.2,43.5h0.4v-0.2H9.2V43.5z   M9.2,25.9v0.2l0.1,0.1h0.8l0.8,0.1l0.5-0.2c0.2-0.2,0-0.2-0.4-0.2H9.2z M9.2,28.7l1.4,0.1c0.3,0,0.5-0.1,0.5-0.3H9.8  C9.5,28.4,9.3,28.5,9.2,28.7 M9.2,30.2l0.9,0.1l0.9-0.1L11,30l-0.4-0.1H9.8L9.3,30L9.2,30.2z M11.2,30.5l-0.8-0.1H9.3l-0.1,0.2  l0.5,0.1h0.9C10.9,30.7,11.1,30.7,11.2,30.5 M11.1,31.6c0-0.2-0.2-0.2-0.4-0.2H9.2v0.2l0.4,0.1h0.8L11.1,31.6z M9.2,31.9v0.3h0.3  l1,0.1l0.5-0.1c0.3-0.1,0.2-0.2-0.3-0.2l-1.1-0.1H9.2z M11.1,32.5l-0.8-0.1h-1l-0.2,0.1l0.1,0.2l0.4,0.1h1.4L11.1,32.5z M9.3,26.5  l0.1,0.3h1.4l0.5-0.1l-0.1-0.2h-0.6l-0.5-0.1L9.3,26.5z M9.5,26.9l-0.2,0.2l0.4,0.1h1.5c0.1-0.2,0.1-0.2,0-0.2l-0.3-0.1H9.5z   M9.3,27.7l1.1,0.1l0.9-0.1l-0.2-0.2l-0.5-0.1l-1.1,0.1l-0.2,0.1V27.7z M9.3,27.9v0.3h1.4l0.5-0.1c0-0.2-0.2-0.2-0.5-0.2H9.3z   M9.3,41.1l0.9,0.1h2l0.1-0.2l-0.7-0.1H9.9C9.6,40.8,9.4,40.9,9.3,41.1 M9.4,42.9V43l1,0.1h2.4l-0.1-0.2h-0.2L12,42.8H9.8L9.4,42.9z   M9.6,40.1l0.9,0.1h1.4L12,40v-0.1h-0.6L10,39.9C9.8,39.9,9.6,39.9,9.6,40.1 M9.6,40.6h1l0.7,0.1l0.4-0.1h0.5c0.2,0,0.2-0.1,0-0.2  h-0.6L10,40.3l-0.5,0.1V40.6z M9.6,39.6l0.8,0.1l1.5-0.1l0.1-0.2l-0.7-0.1l-1-0.1l-0.6,0.1L9.6,39.6z M10.2,38.3l-0.4,0.2l0.1,0.1  h0.5c0.2,0.1,0.4,0.1,0.5,0.1c0.2,0,0.4,0,0.6-0.1h0.3c0.1,0,0.1-0.1,0-0.2l-0.2-0.1L10.2,38.3z M9.8,38.9v0.3l1.6,0.1l0.5-0.2  c0-0.2-0.1-0.2-0.5-0.2H9.8z M11.2,32.9h-0.5l-0.4-0.1l-0.4,0.1l-0.1,0.2l0.4,0.2C10.8,33.2,11.1,33.2,11.2,32.9L11.2,32.9z   M9.9,43.5l1.6,0.2h1.4c0-0.2-0.2-0.3-0.7-0.3h-1.7L9.9,43.5L9.9,43.5z M9.9,45l1.7,0.1h1l0.6-0.1c-0.1-0.1-0.3-0.2-0.8-0.2h-1.8  C10.1,44.8,9.9,44.9,9.9,45 M9.9,38.1l1.4,0.1l0.5-0.2V38l-1.4-0.1C10.2,37.9,10,38,9.9,38.1 M11.8,37.4l-0.7-0.1h-0.5l-0.5,0.1  L10,37.6h1.2C11.5,37.6,11.6,37.6,11.8,37.4 M11.7,37l-0.6-0.1l-0.5-0.1l-0.5,0.1l-0.1,0.2l0.4,0.1h1.1L11.7,37z M10.2,33.5l0.2,0.1  l0.6,0.1l0.2-0.1l0.1-0.1H10.2z M10.2,36.7h1.3l0.1-0.2l-0.4-0.1h-0.6l-0.3,0.1L10.2,36.7z M10.2,43.9c0,0.2,0.2,0.2,0.5,0.2  l1.6,0.1l0.7-0.1l-0.1-0.2h-0.5L12,43.8h-0.8L10.2,43.9z M10.2,44.6l1.1,0.1h1.6c0.2,0,0.2,0,0.2-0.1c0-0.1,0-0.1-0.1-0.2l-0.2-0.1  h-2L10.2,44.6L10.2,44.6z M11.5,35.1c-0.1-0.2-0.4-0.2-0.8-0.2h-0.3c-0.1,0.1-0.2,0.1-0.2,0.2c0,0.1,0.1,0.1,0.2,0.2H11L11.5,35.1z   M10.2,35.6l0.2,0.1l0.3,0.1c0.4,0,0.6-0.1,0.7-0.2v-0.1l-0.8-0.1C10.4,35.4,10.3,35.4,10.2,35.6 M10.2,35.9l0.1,0.2l0.4,0.1h0.8  c0-0.2-0.1-0.3-0.4-0.3H10.2z M10.3,13.2l0.8,0.1l0.6-0.1c0-0.2-0.1-0.2-0.2-0.2h-0.9L10.3,13.2L10.3,13.2z M10.4,45.5l0.8,0.2h1.2  l0.7-0.1c-0.1-0.2-0.2-0.2-0.5-0.2H11L10.4,45.5L10.4,45.5z M11.3,34L11,33.9l-0.2-0.1l-0.3,0.2v0.1h0.2C11,34.3,11.2,34.2,11.3,34   M10.5,34.7l0.9-0.1l-0.1-0.2l-0.3-0.1l-0.5,0.2V34.7z M10.6,13.8l1.4,0.1c-0.1-0.2-0.5-0.3-0.9-0.3h-0.1L10.6,13.8L10.6,13.8z   M10.6,17.7l1.7,0.1l0.5-0.2v-0.2l-1.7,0.1L10.6,17.7z M10.7,45.8V46l0.2,0.1h1.9l0.5-0.1l0.1-0.1l-1.1-0.2H10.7z M10.8,12.6  c0.1,0.2,0.5,0.2,1.1,0.2h0.1C11.8,12.6,11.4,12.5,10.8,12.6L10.8,12.6z M10.8,14.2v0.2l1.4-0.1l-0.5-0.2h-0.5L10.8,14.2z   M10.9,16.7c0,0.1,0.2,0.2,0.5,0.2h1.4l0.2-0.2v-0.1h-1.4L10.9,16.7z M10.9,17.3l1.5,0.1c0.3,0,0.5-0.1,0.6-0.3L12.6,17L11.5,17  L10.9,17.3L10.9,17.3z M11,14.6v0.2h1.3l-0.4-0.2L11,14.6z M11.1,15.1l0.3,0.2H12v-0.2C11.7,15.1,11.4,15.1,11.1,15.1 M11.1,46.3  c0,0.2,0.1,0.3,0.2,0.3H13c0.2-0.1,0.2-0.2,0.1-0.2l-0.3-0.1H11.1z M11.1,15.7c0.6,0.1,1.1,0.1,1.4-0.2h-1.1L11.1,15.7L11.1,15.7z   M11.2,12.1v0.2h0.7c0.2,0,0.2,0,0.2-0.2L11.9,12L11.2,12.1z M15.4,21.8l-0.3-0.2l-0.6-0.2h-3l-0.2,0.1l0.1,0.2h0.8l1.1,0.1h1.1  L15.4,21.8z M11.4,16.1l0.3,0.2c0.4,0.1,0.6,0,0.6-0.2l-0.5-0.1L11.4,16.1z M11.4,22.1L11.4,22.1l0.8,0.2H14l0.9-0.2L13.6,22h-1.4  L11.4,22.1z M11.8,11.1c0.1,0.2,0.2,0.2,0.4,0.2c0.2,0,0.3-0.1,0.5-0.2H11.8z M29.9,9.9c0,0.1,0.1,0.2,0.2,0.2l-1,0.2  c-0.3,0.1-0.3,0.2-0.2,0.4l-0.4,0.1h-0.5c-0.2,0.1-0.2,0.1-0.2,0.2l0.2,0.2l-0.7,0.2v0.3l-0.9,0.2l0.2,0.3l-0.5,0.1L26,12.4v0.2  l-0.4,0.2v0.1l0.1,0.2l-0.3,0.2l0.2,0.3l-0.4,0.3l0.1,0.2l0.2,0.2h-0.2l-0.2,0.1c-0.1,0.1-0.1,0.1-0.1,0.2c0,0.1,0.1,0.1,0.2,0.2  l0.1,0.1L25,14.8l0.5,0.3v0.1L25,15.4l0.8,0.2v0.1l-0.5,0.3l1.1,0.2v0.1H26l0.2,0.3l0.5,0.2h-0.1c-0.1,0.1-0.2,0.1-0.2,0.2  c0,0.1,0.1,0.1,0.2,0.2l-0.1,0.1c-0.1,0.1-0.1,0.2,0.1,0.4l0.1,0.1h-0.2c-0.2,0.1-0.2,0.2-0.2,0.2c0,0,0,0.1,0.1,0.2H27l0.2-0.2  v-0.1l-0.1-0.2l0.3-0.2l0.2-0.2l0.5-0.3l0.1,0.5v0.2l-0.5,0.2l0.1,0.3l-0.5,0.2l-0.5-0.2l-0.4,0.1c-0.2,0-0.3,0.1-0.4,0.2l0.7,0.2  h0.8l-1.3,0.1l-0.5,0.3l0.7,0.1l0.5-0.1l0.4,0.1l0.4-0.1l0.5-0.2l-0.1-0.2l0.5-0.3v-0.2l0.2-0.4l-0.1-0.3v-0.1l-0.1-0.2l0.1-0.2  c-0.1-0.1-0.2-0.2-0.5-0.2H28v-0.1l0.3-0.1l0.5-0.1c0.2,0,0.2-0.2,0-0.3h-0.2c0.2-0.2,0.6-0.2,1.3-0.1v0.1h-0.4l-0.1,0.3h0.1  l1.3,0.2l-1.4,0.1v0.2l0.4,0.2l-0.5,0.2l0.1,0.2l0.5,0.2l-0.5,0.2V18l0.1,0.1l0.2,0.1l-0.5,0.2l0.3,0.4l-0.3,0.1l-0.2,0.1l-0.1,0.2  l0.2,0.1h1l0.2-0.2v-0.1L30,18.6l0.5-0.2l-0.3-0.2c0.3-0.2,0.4-0.4,0.2-0.5l-0.1-0.1c0.2-0.1,0.3-0.1,0.3-0.2c0-0.1-0.1-0.2-0.2-0.2  c0.3-0.2,0.5-0.2,0.6-0.2v0.3c0,0.1,0,0.2,0.2,0.3l-0.3,0.2l0.2,0.3l-0.5,0.2c-0.1,0.1-0.1,0.2,0,0.2l0.4,0.1l-0.7,0.2l0.6,0.3v0.1  h-0.4L30,19.5l0.7,0.1L30,19.7h-0.1l-0.3,0.1l-0.2-0.1h-0.3c0,0.2,0.2,0.2,0.5,0.2H30v0.1l-0.5,0.1h-1.4l-0.6,0.1  c-0.5,0-0.8,0.1-0.8,0.2l2.2,0.1h-1.2l-0.6,0.1l-0.7-0.1l-0.7,0.1v0.2l0.4,0.1l0.7,0.1l1.8-0.1l1.7,0.1l-0.9,0.2l0.3,0.3l-0.8,0.1  h-0.6l-1.4,0.1l-0.4-0.1L26,21.8l-0.6-0.2l0.1-0.3l-0.7-0.1c-0.2,0-0.3,0.1-0.2,0.2l0.2,0.1v0.1l-0.1,0.3v0.1l0.3,0.2l-0.5,0.2  l1.2,0.3l-0.5,0.3V23h0.9V23l-1.3,0.1L24.4,23l0.1-0.2l-0.6-0.2l0.5-0.3v-0.1l-0.3-0.1l-0.6,0.1h-0.4l0.2,0.4l-0.2,0.1  c-0.1,0.1,0,0.2,0.4,0.4v0.1l-0.1,0.3h0.2l1.2,0.2h-0.8l-0.8,0.1l-0.2-0.4L22.6,23l-0.2-0.2l-0.3-0.2l0.1-0.2l-0.1-0.2l0.5-0.2  l0.5-0.1v-0.3l0.2-0.1l0.6-0.2l-0.2-0.2l0.7-0.2l0.3-0.1h0.5l-0.6-0.2h-0.1v-0.1l0.5-0.1l0.2-0.2v-0.2l1.1-0.2l-0.5-0.3l0.6-0.2  l0.2-0.1l-0.2-0.2c-0.3-0.1-0.5-0.1-0.7,0h-0.4l-0.3,0.1L25,19.6l-0.8,0.2l-0.1,0.2l0.3,0.2l-0.9,0.2l-0.3,0.1L23,20.5l-0.4,0.1  h-4.7l-0.8-0.1l1.1-0.1h2l1-0.2v-0.1l-0.5-0.1h-0.5L18.8,20l1.1-0.1l0.5-0.1v-0.2L19,19.6l0.7-0.2l0.8-0.1v-0.1L20,19.1L19.3,19  v-0.1l0.5-0.1H20l0.1-0.3l-0.8-0.1l0.5-0.1l0.3-0.2L19.3,18l0.7-0.2l-0.2-0.2l-0.5-0.1l0.4-0.4L18,17L16.8,17v-0.1l0.8-0.1l-0.6-0.3  l-0.1-0.1l0.3-0.1v-0.2L16.8,16l0.4-0.2v-0.2l-0.4-0.1v-0.1l0.4-0.2L16.6,15l0.6-0.1c-0.1-0.2-0.3-0.3-0.6-0.3L16,14.5h-0.4  l-0.2-0.3L15.1,14l0.1-0.2c0.1-0.2,0-0.3-0.2-0.3h-0.2l-0.2,0.2v0.2l0.1,0.1l0.2,0.1l-0.5,0.1l0.2,0.3l0.4,0.2l-0.5,0.1l-0.1,0.2  l0.4,0.2l-0.5,0.2l0.5,0.2v0.1h-0.4l-0.3,0.2v0.1l0.8,0.3c-0.4,0-0.6,0.1-0.7,0.2l0.7,0.1l0.2,0.1h-0.4l0.1,0.3l0.4,0.2h-0.2  l0.2,0.3v0.1l-0.4,0.2v0.2h0.1l0.1,0.1V18l-0.5,0.2h-0.3l-0.1,0.3v0.4l0.5,0.1h0.8c0.2-0.1,0.3-0.2,0.2-0.2l-0.1-0.2l1-0.2L16.5,18  l0.3-0.2h1.1V18l-0.5,0.2l-0.2,0.1l0.1,0.2l-0.9,0.2l0.4,0.2L16.3,19L16,19.2l0.3,0.2l-0.2,0.3l0.1,0.2v0.2l0.1,0.2v0.3l0.2,0.2v0.4  l0.2,0.1h1.4l1.6,0.1l-0.5,0.1h-2.4l-0.2,0.1c-0.1,0.1-0.1,0.1,0.2,0.2l0.8,0.1L16.8,22l-1.1,0.1c-0.3,0-0.5,0.1-0.6,0.2l0.8,0.1  v0.1l-1.4,0.1l0.2,0.3V23h-0.5L14,23.1l0.1,0.2l-0.5,0.2l-0.1,0.2l0.2,0.1L13,24.1l0.5,0.3L13,24.5C13,24.5,13,24.6,13,24.6  c0,0.1,0,0.2,0.2,0.2l-0.5,0.2v0.1l0.4,0.2l-0.5,0.2l0.1,0.2l0.1,0.1l-0.5,0.3l0.4,0.2l-0.4,0.1l0.2,0.5c-0.3,0-0.4,0.1-0.3,0.2  l0.2,0.2l-0.3,0.2c0,0.1,0.2,0.2,0.5,0.3L12.1,28c0,0-0.1,0.1-0.1,0.2c0.1,0.1,0.2,0.1,0.3,0.1v0.1h-0.2l-0.1,0.1  c0,0.1-0.1,0.1-0.1,0.2s0,0.1,0.1,0.2l0.2,0.1l0.1,0.1c-0.3,0-0.3,0.1-0.2,0.4l-0.2,0.1c-0.1,0.1-0.1,0.1-0.1,0.2s0,0.1,0.1,0.2  l0.2,0.2L12,30c0,0.2,0.1,0.2,0.3,0.2v0.1l-0.4,0.2l0.1,0.1l0.3,0.2l-0.2,0.1L12.1,31c-0.1,0.1,0,0.2,0.3,0.4l-0.3,0.3l0.2,0.1  l-0.1,0.4l0.2,0.2c-0.3,0.1-0.4,0.2-0.3,0.4l0.1,0.1l0.2,0.1l-0.3,0.2C12,33,12,33,12,33.1c0,0.1,0.2,0.2,0.5,0.2l-0.2,0.3l0.3,0.2  l0.8,0.1l0.4,0.1L13.2,34c0.1,0.3,0.3,0.4,0.8,0.4h0.2l0.4-0.1h0.3l0.4-0.2l1,0.2l0.6-0.2l0.1-0.2l-0.3-0.1l-0.8-0.2h1.6  c0.4,0,0.6-0.1,0.6-0.3h-2.9l-1-0.2L14,33.2h1.6l2,0.2l0.7-0.2c0.2,0,0.3-0.1,0.2-0.2l-0.4-0.2h0.5l0.2-0.1v-0.3h-0.7l-0.7-0.2h1.2  l0.5-0.2v-0.1l-0.8-0.2h-0.8L17.1,32v0.2l0.1,0.1v0.1h-0.5L16,32.5l-0.5-0.1l0.2-0.2l0.1-0.3l0.5-0.2l-0.1-0.2v-0.2h1l0.9,0.1h0.8  l1.3-0.2l-0.4-0.3l1.1-0.1l0.2-0.2l-0.8-0.1l-0.1-0.1l0.8-0.1h0.4l0.4-0.2V30L21.1,30l0.7-0.1h0.5l0.5-0.1l-0.1-0.2l-0.3-0.1  l-0.5-0.2h1.1l0.8-0.1l-0.4-0.2h-0.8l1.7-0.2l0.6-0.2h-0.5l-0.5-0.2h1.4l0.6-0.2v-0.2h-0.6L24,28.1l-0.6-0.2h3l0.9-0.2v-0.1  l-6.1-0.2c-0.2,0-0.3,0.1-0.4,0.3l0.7,0.1L21,28.1h-1.1l-0.6-0.2l0.5-0.1l0.4-0.2l-0.5-0.2L19,27.4h1.1c0.3-0.1,0.4-0.2,0.4-0.4  l0.3-0.2l0.4-0.1v-0.3h0.5l0.4-0.1l0.1-0.3l0.2-0.1h0.8l0.6-0.1l-0.2-0.2l-0.4-0.1l0.4-0.2v-0.2l-0.1-0.2h1.3l0.5-0.1h0.5l0.1-0.2  l-0.5,0.1l-0.5-0.1l-0.7-0.1l-0.5,0.2l-0.8-0.1h-0.5l-0.2-0.3L21.7,24l-0.2-0.3l-0.2-0.2l-0.1-0.3L20.7,23l0.5-0.1h0.5L22,23  l-0.1,0.1c-0.1,0.2,0.1,0.3,0.4,0.4h0.1l0.1,0.1l-0.4,0.1v0.2h0.4l0.6,0.1l0.5,0.2l1.2-0.1l-0.9,0.1h-1.1c0,0.2,0.3,0.3,1,0.3  c0.6,0.1,1.1,0.1,1.5-0.1l0.7-0.4h0.6l0.4-0.2l-0.3-0.2v-0.1h0.8l0.5-0.1V23l0.5-0.1l0.5-0.1l0.2-0.2l0.2-0.2l0.8-0.1l0.2-0.2v-0.2  l0.5-0.4l-0.2-0.2l0.5-0.2L31,21.1l-0.1-0.1l0.6-0.1l-0.4-0.5h1.4c0.5,0,0.8-0.1,0.9-0.2l-0.9-0.1l-0.5,0.1l-0.5-0.2v-0.1l0.5-0.2  l0.4,0.1l0.9,0.1l0.5-0.3h-1.1l-0.8-0.2l1.4-0.1h1.7l0.8,0.1l-0.6,0.2H35L34.7,20l0.8,0.2L34,20.5l0.4,0.2h0.5v0.1h-0.8l-0.5,0.1  l-1.1-0.1c-0.5,0-0.8,0.1-0.8,0.2L31.6,21l0.8,0.1l1.1,0.1v0.1l-0.9,0.2v0.1l0.2,0.1l0.1,0.2l0.2,0.2l0.4,0.2l0.2,0.4l0.6,0.2  l0.5-0.1h1.4l0.1-0.2l-0.2-0.1h-0.4l-1.1-0.1l-0.7-0.2l0.1-0.2l-0.5-0.1v-0.1h2.8l0.9-0.2v-0.1l-0.4-0.1h-0.5l-0.2-0.2H37l0.5-0.1  l0.1-0.2l-1.1-0.2l0.8-0.1l0.5-0.1l0.1-0.2l-1-0.2h0.5l0.5-0.1c0.2,0,0.2,0,0.2-0.1c0,0,0-0.1-0.1-0.2l-0.8-0.1l0.8-0.2l0.2-0.2  l-0.7-0.2l0.8-0.1c0-0.2-0.2-0.3-0.7-0.4h-0.1l1-0.2l-0.8-0.3v-0.1c0.5-0.1,0.7-0.2,0.8-0.4l-0.7-0.1v-0.1h0.5l0.1-0.3h-0.2  l-0.4-0.2l0.7-0.2v-0.1l-0.6-0.2c0.2,0,0.4-0.1,0.5-0.3l-0.7-0.2l0.5-0.1v-0.2L38,15.8l-0.5-0.1v-0.1h0.5l0.1-0.3h-0.3l-0.6-0.1  v-0.1l0.8-0.2V15l-0.3-0.1l-0.7-0.1v-0.1l0.8-0.2l-0.4-0.2L37,14.2l0.5-0.1c-0.1-0.2-0.2-0.3-0.5-0.4v-0.1c0.2-0.1,0.2-0.1,0.2-0.2  c0,0,0-0.1-0.1-0.2l-0.5-0.2l0.2-0.3l-0.5-0.2l0.2-0.2l-0.8-0.3l0.5-0.3l-0.7-0.2l0.2-0.2v-0.2L35,11.2l0.3-0.1l-0.1-0.3l-0.8-0.2  v-0.2l-0.5-0.2h-0.4l-0.2-0.2l-0.6-0.1V9.9l-2.1-0.2L29.9,9.9z M11.8,11.6v0.2l0.5-0.2H11.8z M12.1,10.8l0.7-0.2  c-0.2-0.1-0.3-0.1-0.4-0.1C12.3,10.5,12.2,10.6,12.1,10.8L12.1,10.8z M12.2,46.9l0.5,0.3l0.3-0.1l0.4-0.2l0.1-0.1l-0.8-0.1  L12.2,46.9z M12.2,47.5c0.2,0.2,0.5,0.3,0.8,0.2l0.2-0.2L13,47.4C12.7,47.3,12.4,47.3,12.2,47.5 M12.3,35l0.4,0.4l-0.4,0.1  c0,0.2,0.2,0.3,0.4,0.4h0.2v0.1l-0.5,0.2l0.6,0.3l-0.4,0.1v0.2l0.4,0.2l-0.2,0.1c-0.3,0.1-0.2,0.3,0.2,0.5l-0.3,0.1l0.3,0.4  l-0.3,0.1l0.1,0.3l0.2,0.2l-0.2,0.1v0.2l0.2,0.2v0.1c-0.2,0.1-0.3,0.2-0.2,0.3l0.3,0.2c-0.3,0.1-0.3,0.3-0.2,0.4l0.2,0.1v0.1  l-0.2,0.2l0.1,0.1l0.3,0.1L13,40.5c-0.1,0.1,0,0.3,0.4,0.3h0.1l-0.2,0.3l0.4,0.2v0.4l0.2,0.2L13.4,42l0.2,0.2l0.6,0.2v0.1l-0.4,0.1  l-0.2,0.1c0.1,0.1,0.2,0.1,0.3,0.2h0.2v0.1l-0.4,0.1c-0.2,0.1-0.2,0.1-0.1,0.2l0.2,0.1H14v0.1l-0.1,0.1c-0.1,0.1-0.1,0.1-0.1,0.2  c0,0.1,0,0.2,0.1,0.2l0.1,0.1l-0.1,0.1v0.2l0.2,0.2l0.1,0.1L14,44.4c-0.1,0.1,0,0.2,0.3,0.4L14.1,45l0.2,0.2l0.3,0.1l0.2,0.3  l0.5,0.2l0.5-0.1l0.2-0.2l-0.1-0.3l0.2-0.1l0.1-0.2L16,44.7v-0.3l-0.1-0.2L16,44l-0.2-0.2c0.2-0.1,0.2-0.2,0.1-0.3l-0.4-0.2l0.3-0.2  c0.1-0.2-0.1-0.3-0.3-0.3h-0.1l0.5-0.2l-0.5-0.4l0.5-0.2V42l-0.4-0.2l0.8-0.3l-0.8-0.2l0.6-0.3l0.1-0.1l-0.5-0.1l0.4-0.2l-0.3-0.2  l-0.1-0.1v-0.1l0.4-0.2l-0.5-0.4l0.8-0.2l-0.8-0.2l0.2-0.1l-0.2-0.3v-0.1l0.3-0.2l-0.3-0.3l0.3-0.2V38l-0.3-0.3l0.2-0.1  c0.1-0.1,0.1-0.2-0.1-0.3v-0.1l0.2-0.3l-0.2-0.2l0.5-0.2l-0.1-0.2l-0.4-0.2l0.8-0.3l-0.6-0.2l-0.6-0.1L14.9,36  c-0.1,0.1-0.1,0.1,0,0.2l0.2,0.1l-0.4,0.3v0.1l0.2,0.2l-0.5,0.1l-0.3-0.1l0.5-0.2L14,36.4l0.3-0.2c0.1-0.2,0.1-0.2,0-0.2l-0.5-0.2  l0.4-0.1l-0.2-0.3l-0.3-0.1l-0.2-0.1h0.2l0.1-0.1c0.1-0.2,0-0.2-0.3-0.2H12.3z M12.6,34.2h0.3c-0.1-0.1-0.1-0.2-0.2-0.2  C12.7,34,12.6,34.1,12.6,34.2 M12.6,47.9c0,0.2,0.3,0.2,0.8,0.2h0.4l0.2-0.2l-0.4-0.1h-0.7L12.6,47.9z M12.8,49.1l0.4-0.1l0.4,0.1  l0.3-0.1c-0.1-0.2-0.3-0.2-0.6-0.2L12.8,49.1L12.8,49.1z M13,48.4c0.3,0.1,0.4,0.1,0.5,0.1c0.2,0,0.3-0.1,0.3-0.2L13,48.4z   M14.2,15.6l-0.6-0.2l0.4-0.2L13.6,15v-0.1l0.3-0.2v-0.1l-0.2-0.2l0.3-0.2v-0.1L13.8,14l0.3-0.3L14,13.5l-0.2-0.1l0.4-0.1L14,12.9  l0.8-0.1l0.3-0.1l0.1-0.3l0.3-0.2l-0.3-0.4l-0.2-0.3l-0.2-0.1h-0.5l-0.5,0.1l-0.1,0.3l-0.1,0.2v0.3l-0.2,0.2v0.2l-0.1,0.2v0.2  l-0.1,0.3v0.2l-0.1,0.2v0.3L13,15.2l0.1,0.2v0.4c0.1,0.1,0.3,0.2,0.5,0.2c0.2,0,0.4-0.1,0.5-0.2L14.2,15.6z M18,9L18,9l-3,0.1  l-1-0.2l-0.5,0.4v0.2l-0.2,0.2l0.1,0.2l-0.1,0.5l0.1,0.1h0.1v0.1c-0.1,0.1-0.1,0.1-0.1,0.1c0,0.1,0,0.1,0.1,0.2l0.2,0.1l1,0.1  l0.5,0.1h-1.1c-0.3,0-0.3,0.1-0.2,0.3l0.5,0.1l0.8-0.1l0.5,0.2l-0.2,0.2l0.3,0.2l0.4,0.2h-0.5c-0.2,0.1-0.2,0.1-0.2,0.2l0.2,0.2H16  l0.8,0.1l-0.2,0.2c-0.1,0.2,0.1,0.2,0.4,0.2l-0.7,0.2v0.2h0.3l0.2,0.2l-0.5,0.2l-0.1,0.2L17,14l0.3,0.5h0.3l0.5,0.1l-0.3,0.1  l0.1,0.3l0.2,0.1v0.2c-0.1,0.1,0,0.2,0.2,0.3L18,15.6l-0.1,0.2c0,0.1,0.1,0.1,0.3,0.2h0.1v0.1l-0.5,0.2l0.3,0.2l0.8-0.1l-0.2-0.2  l0.2-0.1l0.4-0.2v-0.3l0.2-0.2v-0.2l-0.1-0.3l-0.5-0.2v-0.1l0.3-0.2l-0.2-0.2V14l0.8-0.3L19,13.5l0.5-0.1v-0.1l-0.6-0.2l0.4-0.1  l0.3-0.1h0.6l0.3-0.1v-0.2l-0.1-0.2l0.2-0.1l0.1-0.2L20.5,12l0.1-0.3l-0.1-0.2l0.2-0.1l0.2-0.2l-0.2-0.1l1.1-0.3l-0.5-0.2v-0.1  l0.1-0.1c0.3-0.1,0.3-0.3,0.1-0.4c-0.1-0.1-0.3-0.1-0.5,0l-0.5,0.2L20,10.7h-0.5l-0.7-0.1v-0.1l0.8-0.1v-0.1L19.2,10L20,9.8  l-0.5-0.2l-0.4-0.2l0.8-0.2V9.2l-0.7-0.2L19.3,9c0.2,0,0.3-0.1,0.2-0.3L19,8.5l-0.8,0.2l-0.4-0.2h-0.7l-0.3-0.4h-0.2l-0.7,0.3  l-0.8-0.1c-0.3,0.2-0.4,0.3-0.4,0.3l0.5,0.2h0.9L16.7,9H18z M13.4,51.1h0.3v-0.2L13.4,51.1L13.4,51.1z M13.6,32.8h0.5l0.5-0.1  l0.5,0.1l1.4,0.1c-0.2,0.2-0.5,0.2-1,0.1h-1.4L13.6,32.8L13.6,32.8z M13.9,17.4l-0.1,0.4c0.1,0.1,0.2,0.2,0.3,0.2  c0.1,0,0.2-0.1,0.4-0.2v-0.2l-0.2-0.2c0.2,0,0.3-0.1,0.4-0.2L14,17c-0.2,0.1-0.3,0.1-0.3,0.2c0,0.1,0,0.1,0.1,0.1L13.9,17.4z   M13.7,34.5c0.1,0.2,0.1,0.2,0.2,0.2l0.2-0.2H13.7z M14.5,16.5l-0.3-0.1l-0.4,0.1v0.3l0.3,0.1c0.2,0,0.3-0.1,0.4-0.2V16.5z M14,30.8  l0.2,0.1V31L14,30.8z M14,31.9l0.4-0.2l0.8,0.1l-0.4,0.2L14,31.9z M14,51.6l0.4-0.1v-0.1L14,51.6L14,51.6z M14.8,31.3l-0.5,0.2  L14,31.4l0.1-0.2h0.4L14.8,31.3z M14.1,34.6l0.7,0.3l-0.1,0.1l0.6,0.2h0.3l0.3-0.2v-0.1l-0.7-0.2l0.1-0.2c-0.1-0.2-0.4-0.3-0.8-0.2  h-0.1L14.1,34.6z M14.2,29.9c0.2-0.2,0.4-0.2,0.7-0.1l0.3,0.1l-0.1,0.3l0.4,0.1l0.5,0.2l1.2-0.2h0.3l0.6,0.1l0.4,0.2l-1.1,0.2  l0.8,0.2L17.4,31L15.8,31H15l-0.1-0.4l-0.4-0.1l-0.2-0.1l0.1-0.3L14.2,29.9L14.2,29.9z M14.8,29.4l-0.4,0.1l-0.2-0.1  c0-0.1,0.1-0.2,0.2-0.2L14.8,29.4z M14.3,37.4c0.1-0.3,0.3-0.3,0.5-0.2l0.1,0.1L14.3,37.4z M16.2,45.9c0,0.2,0.1,0.3,0.3,0.3  l-0.2,0.2c-0.2,0.2-0.1,0.3,0.3,0.3v0.1l-0.3,0.2v0.2l0.2,0.2l-0.1,0.2l0.2,0.3L16.3,48l-0.1,0.3L16,48.4l-0.5-0.2l0.4-0.1l-0.1-0.2  l-0.5-0.1l0.2-0.3l-0.2-0.3l0.5-0.3l-0.6-0.2l-0.8,0.1c0,0.2,0.1,0.3,0.2,0.3l0.2,0.1l-0.2,0.2l0.3,0.3v0.1h-0.1  c-0.2,0.1-0.2,0.2-0.1,0.3l0.2,0.1h0.2l-0.3,0.2c-0.1,0.1,0,0.1,0.2,0.2l0.1,0.1v0.1h-0.2c0,0.2,0.1,0.4,0.4,0.5L15,49.4l0.2,0.5  L14.5,50c0.1,0.1,0.3,0.2,0.7,0.3l-0.2,0.2v0.2l0.7,0.2v0.3l0.2,0.1l0.7-0.1c-0.1-0.2-0.2-0.3-0.5-0.3v-0.1l0.4-0.1l-0.1-0.3  l0.1-0.3v-0.2l0.1-0.2l-0.1-0.3l0.1-0.2v-0.2l0.2-0.2v-0.2l0.1-0.2v-0.2l0.1-0.3v-0.3L17,47l-0.2-0.2l0.2-0.2l-0.1-0.3v-0.3  c0-0.1-0.1-0.2-0.2-0.2C16.6,45.8,16.4,45.8,16.2,45.9 M14.4,29c0-0.1,0.1-0.2,0.2-0.2C14.6,28.9,14.5,29,14.4,29 M15.7,46.5  c-0.2-0.2-0.5-0.2-0.9-0.2l-0.2,0.1c0,0.1,0,0.2,0,0.2l0.4,0.1h0.3L15.7,46.5z M14.6,45.9v0.2l0.2-0.2L14.6,45.9z M16.1,9.4  l-0.5,0.2h-0.5l-0.4-0.2l0.2-0.1h0.7L16.1,9.4z M14.9,35.7l1.1,0.1l0.3-0.2l-0.4-0.2l-0.6,0.1L14.9,35.7z M16.8,52.6v-0.2l-0.6-0.1  l-0.3,0.1l-0.5-0.1l-0.5,0.2c0.1,0.1,0.2,0.1,0.4,0.2L16.8,52.6z M15.1,10l0.8-0.2l0.3,0.2l-0.5,0.1L15.1,10z M15.1,28.8h0.5  l0.4,0.1V29h-0.8V28.8z M15.2,28.4l0.4-0.1l0.2,0.2l-0.2,0.1L15.2,28.4z M15.4,28l-0.1-0.2h0.1V28z M15.3,12.6l0.2,0.2l0.2,0.1  c0.3,0,0.3-0.1,0.2-0.2l-0.3-0.1L15.3,12.6z M15.3,51.6l0.5,0.1l0.6-0.1l-0.3-0.2c-0.2-0.1-0.4-0.1-0.5-0.1  C15.5,51.3,15.4,51.4,15.3,51.6 M15.5,29.4c0.2,0,0.3-0.1,0.4-0.1c0.1,0,0.2,0.1,0.2,0.2L15.5,29.4L15.5,29.4z M15.6,14.4h1.1  c0.1,0,0.1-0.1,0.1-0.2c0,0-0.1-0.1-0.2-0.2l-0.4,0.1L15.6,14.4L15.6,14.4z M17.1,52.9L16,52.9h-0.3V53l0.3,0.2  C16.5,53.3,16.8,53.2,17.1,52.9L17.1,52.9z M16,17.4l0.4-0.1l0.4,0.1l-0.5,0.2L16,17.4L16,17.4z M16.2,27.4l0.6-0.1l1,0.1l-0.4,0.2  h-0.8L16.2,27.4z M16.2,26.9l1-0.1c-0.1,0.2-0.2,0.2-0.4,0.2L16.2,26.9L16.2,26.9z M17.5,29.5c0.1-0.2,0.3-0.2,0.6-0.2h0.6l0.8,0.1  l0.5,0.1L19,29.5l-0.8,0.2l0.7,0.2l0.2,0.1L19,30L17.4,30L17,30h-0.7l-0.1-0.1v-0.1h0.5l0.5-0.1h0.2l0.3-0.1v-0.1L17.5,29.5z   M16.5,42.6L16.5,42.6l-0.2-0.1l0.1,0.2L16.5,42.6L16.5,42.6z M16.4,28l0.5-0.2l1.4,0.1l-0.5,0.1L16.4,28z M16.7,42.9h-0.2l-0.1,0.2  l0.3-0.1V42.9z M16.5,43.7l0.3-0.1v-0.1c-0.1-0.1-0.2-0.1-0.3,0V43.7z M16.6,44c-0.1,0.1-0.1,0.1-0.1,0.2c0,0.1,0,0.1,0.1,0.1h0.2  l0.1-0.1c0.1-0.1,0.1-0.1-0.1-0.2H16.6z M16.9,26.5h-0.2l-0.2-0.2c0.1-0.1,0.1-0.1,0.2-0.1C16.8,26.3,16.9,26.4,16.9,26.5L16.9,26.5  z M19.3,31.5h-2.7l-0.1,0.2h0.2l0.5,0.1h1.5l0.6-0.2V31.5z M16.5,45.6l0.2,0.1h0.2l0.2-0.2l-0.2-0.2l-0.2,0.2L16.5,45.6z M16.6,10.5  l1.1-0.1l0.7,0.2l-0.6,0.1L16.6,10.5L16.6,10.5z M16.6,44.6h0.2l0.2-0.1l-0.1-0.1h-0.2V44.6z M16.7,45.1L16.7,45.1L16.7,45.1  L16.7,45.1z M16.8,28.4l0.2-0.2h2.2l2.1,0.1l-0.5,0.2l-1.3,0.2l-0.1,0.1l0.5,0.1v0.1l-1.4,0.1h-0.5L17.9,29l-0.8-0.1l-0.1-0.1  l1.2-0.1h0.6l-0.4-0.2l-1,0.1L16.8,28.4z M22.3,20.9c-0.6,0.2-1.2,0.3-2,0.2h-3L17,20.9l0.3-0.1h3.6l1,0.1H22.3z M18.3,17.4  c-0.1,0.2-0.4,0.2-0.9,0.2l-0.3-0.1c-0.1-0.1-0.1-0.2,0.1-0.2h0.7L18.3,17.4z M17.1,9.4l0.3-0.1h0.2c0.2,0,0.3,0.1,0.2,0.2h-0.6  L17.1,9.4z M17.1,11h2.2l0.5-0.2L20,11l-0.2,0.2h-0.5L17.8,11L17.1,11z M18.4,11.5l-0.8,0.1l-0.3-0.1l0.1-0.1h0.6L18.4,11.5z   M17.4,10.1L17.4,10.1l0.2-0.2l-0.1,0.2H17.4z M17.5,26l0.6-0.2l0.3,0.2H17.5z M17.6,25.5l0.4-0.1l0.1,0.2L17.6,25.5z M17.6,26.5  l0.8-0.2l0.3,0.1l0.1,0.2L17.6,26.5z M17.7,12.9h0.6c-0.1,0.2-0.2,0.3-0.3,0.3c-0.1-0.1-0.2-0.1-0.2-0.2L17.7,12.9z M17.7,19.9h0.4  l0.1,0.1l-0.1,0.1L17.7,19.9L17.7,19.9z M17.8,14.1c0.1-0.1,0.1-0.2,0.2-0.2c0.1,0,0.2,0.1,0.3,0.2c-0.1,0.2-0.2,0.2-0.4,0.2  L17.8,14.1z M18.2,13.6H18l-0.1-0.2l0.1-0.1l0.2,0.1V13.6z M19.2,54c-0.1-0.1-0.4-0.2-0.9-0.2H18L17.9,54l0.1,0.1l0.4,0.1h0.4  L19.2,54z M18,12.4L18,12.4l0.2,0.2H18V12.4z M18.1,11.9L18.1,11.9l0.1,0.2h-0.1V11.9z M18.2,26.9c0.4-0.1,0.9-0.1,1.6,0  c-0.1,0.2-0.3,0.3-0.5,0.2h-0.6L18.2,26.9z M18.2,47.2l1.2,0.1h1.1c0.5,0,0.7-0.1,0.8-0.3H19C18.5,46.9,18.3,47,18.2,47.2   M18.4,24.4l1.1,0.1L19,24.6L18.4,24.4L18.4,24.4z M18.4,25l0.4-0.2l0.9,0.1l-0.4,0.2L18.4,25z M18.4,47.5l0.5,0.3h0.6l0.5-0.1  l1.1-0.1v-0.2L19,47.4L18.4,47.5z M18.6,49.7h2.8v0.1L20.7,50c0,0.2,0.1,0.2,0.4,0.2l-0.4,0.3l0.2,0.1v0.1l-1.4,0.1L19.1,51  l-0.6,0.2v0.1h0.9l0.7-0.1l0.7,0.1v0.1l-0.5,0.1c0.1,0.2,0.2,0.3,0.4,0.3l-1.2,0.2c-0.3,0-0.5,0.1-0.5,0.2l-0.1,0.1l1.5,0.1  l-0.8,0.1l-0.9,0.2l-0.2,0.1v0.1l0.2,0.1h0.5l3.1,0.1c0.2-0.1,0.2-0.1,0.2-0.2c0-0.1-0.1-0.1-0.2-0.2L22,52.3l0.9-0.2V52l-0.6-0.2  v-0.1l0.8-0.2l-0.5-0.3v-0.1l0.8-0.2V51L23,50.9v-0.1l1,0.1V51L23.8,51v0.1l0.5,0.2l-0.1,0.4l0.8,0.1l0.9-0.1L25,51.3l-0.2-0.1  l0.1-0.1l-0.4-0.3l0.8-0.3l-1.3-0.2l0.8-0.2l-1.2-0.3l-0.8-0.1v-0.1c0.4,0,0.6-0.1,0.7-0.2v-0.1l-1-0.1h-2.8L19,49.4  C18.8,49.4,18.6,49.5,18.6,49.7 M18.4,53.2h0.3l0.2-0.1l0.3,0.1l0.5-0.2v-0.1l-0.5-0.1L19,52.9h-0.2L18.4,53.2z M20.6,45.5l-0.8-0.1  h-0.5l-0.6,0.1c-0.2,0-0.3,0.1-0.2,0.2l0.5,0.1h1.2l0.4-0.1V45.5z M18.5,46.2l0.8,0.1h1.1c0.4,0,0.6-0.1,0.5-0.2l-0.6-0.2H19  L18.5,46.2z M18.5,46.6l1.5,0.2h0.8l0.5-0.2l-0.8-0.2C19.3,46.4,18.7,46.5,18.5,46.6 M18.5,48.1c0.6,0.1,1.1,0.1,1.4-0.1l-1-0.2  L18.5,48.1z M18.6,16.9l0.3-0.2C18.7,16.7,18.6,16.7,18.6,16.9 M18.6,45v0.2l1.6,0.1c0.2-0.1,0.3-0.1,0.4-0.2l-0.5-0.1L18.6,45z   M18.6,50.1l0.5,0.1c0.5,0.1,0.9,0.1,1.2-0.1c-0.2-0.2-0.4-0.2-0.7-0.2L18.6,50.1z M18.6,50.7l1,0.1l0.8-0.1  c-0.2-0.3-0.6-0.4-1.2-0.2h-0.3L18.6,50.7z M18.7,25.3l1.5,0.2v0.1l-1.5-0.1V25.3z M18.7,43.2l1.4,0.1c0.3,0,0.5-0.1,0.6-0.3  L20,42.9h-0.8L18.7,43.2L18.7,43.2z M20.4,43.5l-0.6-0.1H19l-0.3,0.1l0.1,0.2l0.3,0.1H20L20.4,43.5L20.4,43.5z M21.7,48.7l-0.8,0.2  L18.8,49v0.2h3.7c0.3,0,0.4-0.1,0.3-0.2l-0.5-0.1h-0.5L21.7,48.7z M19,42.7h1.3l0.7-0.2l-0.5-0.1h-0.9C19.2,42.4,19,42.5,19,42.7  L19,42.7z M19,16.8L19,16.8l1.5,0.1L20,16.5l0.9-0.2c0-0.2-0.1-0.2-0.4-0.2h-0.7l-0.2,0.1l-0.1,0.4l-0.3,0.1L19,16.8z M19,25.9h1.1  l1.1,0.2l-0.5,0.1L19.5,26L19,25.9z M19,42.1v0.2h1.8l0.1-0.1H21l0.2-0.1L20.6,42C20,41.9,19.4,41.9,19,42.1 M19,44.6l1.1,0.1  c0.3,0,0.5-0.1,0.6-0.2l-1.2-0.1L19,44.6L19,44.6z M20,11.5l-0.5,0.1h-0.2c-0.1-0.1-0.1-0.2,0.1-0.2h0.4L20,11.5z M24.7,29.7  l0.1,0.3l-1.1,0.2l0.2,0.2l-1.1,0.2c-0.3,0-0.4,0.1-0.3,0.2l0.2,0.1V31L21.9,31l-0.1,0.2l0.1,0.2c-0.5,0-0.8,0.1-1,0.2l0.2,0.2  L20.7,32l-0.4,0.1l0.6,0.3l-0.5,0.1l-0.3,0.1L20,32.8l0.7,0.1L20,33c-0.2,0-0.3,0.1-0.4,0.2l0.4,0.1h0.6v0.1l-0.8,0.1l-0.4,0.1  c-0.1,0.2,0,0.2,0.2,0.2l1,0.1v0.1L19.5,34c-0.2,0-0.3,0.1-0.2,0.2l0.4,0.1l1.1,0.1l-0.5,0.1h-0.7l-0.2,0.2l0.4,0.2l1.1,0.1  l-0.5,0.2v0.1l1.4,0.2v0.1l-0.5,0.1v0.2l0.4,0.2l1,0.1h4.3l0.3-0.1L27,35.6l-0.9-0.1v-0.1h1.3l0.4-0.3l-0.7-0.1h-0.5V35l0.5-0.1  c0.4,0,0.7-0.1,0.9-0.3l-0.6-0.1l-0.8-0.1l0.9-0.1l0.6-0.2L26.9,34l1-0.1l0.2-0.1l0.1-0.1l-0.3-0.2l-1-0.1l1.5-0.1  c-0.1-0.2-0.2-0.2-0.5-0.2l-0.8-0.1L26.7,33l0.4-0.1h0.6l0.3-0.2v-0.1l-1.4-0.2l0.6-0.1l0.5-0.2l-1.2-0.3h0.4c0.4,0,0.6-0.1,0.6-0.2  v-0.1l-1-0.1v-0.1c0.5,0,0.7-0.1,0.8-0.3L26.7,31V31h0.8l1.4-0.1c-0.1-0.2-0.2-0.3-0.5-0.3h-1l-0.9-0.1l1.3-0.1l0.5-0.2l-1.4-0.2  L26.1,30l0.7-0.1l0.3-0.1L27,29.7l-0.5-0.1C25.9,29.5,25.3,29.5,24.7,29.7 M19.3,12.6l0.5-0.2l0.3,0.2c-0.2,0.1-0.3,0.1-0.4,0.1  C19.5,12.6,19.4,12.6,19.3,12.6 M19.3,41.8H21l0.5-0.2l0.1-0.1H20C19.6,41.5,19.4,41.6,19.3,41.8 M19.3,44.2h1.2L20.4,44h-0.8  L19.3,44.2z M19.3,51.5v0.2c0.5,0,0.7-0.1,0.7-0.2H19.3z M19.3,39.1L19.3,39.1l0.9,0.2h1.2c0.4,0,0.6-0.1,0.6-0.2L21.5,39l-1.2-0.1  L19.3,39.1z M19.3,40.8l1.1,0.1h1.1l0.4-0.1l0.9,0.1l0.7-0.2l-0.3-0.2l-0.6-0.1h-2.4C19.7,40.5,19.4,40.6,19.3,40.8 M19.3,48.6  l0.7,0.1c0-0.2-0.1-0.3-0.2-0.3C19.7,48.4,19.5,48.4,19.3,48.6 M19.9,11.9v0.2l-0.5-0.1l0.1-0.2h0.2L19.9,11.9z M19.4,26.3l1.1,0.1  c-0.1,0.2-0.2,0.2-0.4,0.2c-0.2,0-0.3,0-0.5-0.1l-0.2-0.1L19.4,26.3z M19.5,39.6l0.5,0.2l0.9,0.1h3.9l0.7-0.1L25,39.6l-1-0.1  l-0.6,0.1h-1L20,39.5l-0.1,0.1h-0.1L19.5,39.6z M19.6,23.6c0-0.2,0.1-0.2,0.2-0.2c0.2,0,0.3,0.1,0.5,0.2l0.2,0.1H19.6z M19.6,24  l0.4-0.2h0.6l0.3,0.1l-0.4,0.2L19.6,24z M19.6,40.1l0.3,0.2H20l0.9,0.1h3.3l1.1-0.1l0.1-0.2L24.6,40l-3-0.1h-1.3L19.6,40.1z   M22.3,41.1l-1-0.2h-0.8L20.2,41l-0.5,0.1l-0.1,0.2h0.2l0.5,0.1h1.5L22.3,41.1z M21,13l-0.3,0.2v0.3l-0.2,0.2  c-0.1,0.2,0,0.3,0.2,0.3v0.1l-0.5,0.2l-0.2,0.2l-0.2,0.2l0.1,0.4v0.2l0.1,0.2L20,15.9c0.3,0.1,0.6,0.1,1-0.1H21l-0.5-0.3l0.5-0.2  l0.1-0.2L20.7,15H21l0.3-0.1l0.2-0.2L21,14.6v-0.1l0.5-0.2l-0.3-0.3V14c0.3,0,0.5,0,0.5-0.2c0-0.1,0-0.1-0.1-0.2l-0.1-0.1l-0.2-0.1  l0.5-0.2l-0.3-0.3l0.2-0.4l-0.1-0.1h-0.1l0.3-0.5h-0.5l-0.2,0.1L21,12.5l-0.2,0.2C20.8,12.8,20.8,12.9,21,13 M20,24.4l0.5-0.1  l0.3,0.1h0.3l0.1,0.1l-0.4,0.1l-0.8-0.1L20,24.4z M23.1,24.9l-0.5,0.2h-2l-0.2-0.2l0.1-0.1h1.6L23.1,24.9z M20.6,54.5l0.4,0.1H21  L20.6,54.5z M20.8,48.7l1.1,0.1l0.5-0.1c-0.2-0.2-0.5-0.2-1-0.2C21,48.4,20.8,48.5,20.8,48.7 M20.9,11.3h0.4l-0.1-0.2  C21.1,11.2,21,11.3,20.9,11.3 M20.9,25.4h1.4l-0.5,0.2C21.6,25.7,21.3,25.6,20.9,25.4L20.9,25.4z M21.1,11.9c0.5,0,0.7-0.1,0.8-0.2  C21.4,11.6,21.1,11.7,21.1,11.9L21.1,11.9z M21.1,52.9c0.1,0.2,0.2,0.3,0.5,0.3l0.7-0.2l-0.3-0.2L21.1,52.9z M21.2,22.6L21.2,22.6  l0.3-0.2c0.2,0.1,0.2,0.2,0,0.2H21.2z M29.6,34.2L29.6,34.2l0.5,0.3l-0.8,0.2l0.4,0.4l-0.6,0.2v0.1l0.5,0.2l-0.9,0.2l-0.3,0.2  l0.8,0.1v0.1c-0.5,0-0.8,0.1-0.9,0.2l0.5,0.2l0.5,0.2L28,36.7l-0.4,0.2h0.7l0.5,0.2l-1.3,0.1c0,0.2,0.1,0.2,0.3,0.2l0.9,0.1v0.1  l-1.1,0.2l-0.1,0.1l0.5,0.1l0.6,0.1c-0.6,0-0.9,0.1-1,0.2l0.7,0.2l0.5,0.1l-0.6,0.2v0.1l1,0.2l-0.8,0.2l0.8,0.4l-0.5,0.1  c0,0.1,0.2,0.2,0.6,0.4v0.1c-0.4,0-0.5,0.1-0.3,0.2l0.3,0.2l-0.5,0.3v0.1l0.4,0.2l-1,0.2c0.1,0.2,0.4,0.2,0.8,0.2l-0.8,0.1  c0.2,0.2,0.4,0.3,0.6,0.3V42l-1.3,0.2c0.1,0.1,0.5,0.2,1.1,0.2v0.1l-2,0.1l-1.7-0.2c0.4,0,0.6-0.1,0.7-0.2l-0.9-0.2h-1.8l-0.9,0.2  l-0.1,0.1l0.8,0.2l-0.5,0.1l-0.7,0.2l1.1,0.2L21.9,43L21.5,43v0.2l0.8,0.1L22,43.4c-0.4,0-0.6,0.1-0.7,0.2v0.1l0.8,0.2l-1,0.2  c0,0.1,0.3,0.2,0.6,0.2v0.1l-0.4,0.1c-0.2,0.1-0.2,0.2-0.1,0.3l0.2,0.2l-0.2,0.1c0.1,0.2,0.2,0.3,0.5,0.4l-0.3,0.3l0.6,0.2l-0.2,0.1  c0.1,0.2,0.4,0.4,0.8,0.5c-0.1,0.1-0.1,0.1-0.1,0.2c0,0.1,0,0.1,0.1,0.2l0.2,0.2l0.1,0.2l0.6,0.2v0.2c0.1,0.1,0.2,0.2,0.5,0.3  L23.7,48l0.6,0.3l0.1,0.1l-0.2,0.3l0.8,0.2v0.1L24.9,49l0.3,0.3h0.9l0.2-0.1v-0.1L26,48.9l0.5-0.2l-1-0.3l0.6-0.3L25.7,48L25,47.8  l0.6-0.1v-0.2l-1.3-0.2l0.3-0.2V47L24,46.9v-0.1l0.4-0.2l-0.9-0.2l0.1-0.3l-0.7-0.2l0.3-0.2l-0.6-0.2v-0.1c0.4,0,0.5-0.1,0.5-0.2  l-0.1-0.2l0.6-0.2l0.8,0.1h0.8v0.1L24.4,45l-0.1,0.1l0.5,0.2l0.8,0.2c-0.2,0.1-0.2,0.1-0.2,0.2c0,0.1,0,0.1,0.1,0.2l0.7,0.2  c-0.2,0-0.3,0.1-0.4,0.2l0.9,0.3v0.1l-0.3,0.2l0.5,0.2h0.7v0.1c-0.4,0-0.7,0.1-0.8,0.3l0.7,0.2h4.5l1.2-0.1v-0.2l-0.5-0.1L31.6,47  h-1.9L28,46.9l-0.5-0.1h4.5l0.6-0.1l-0.4-0.2l-0.5-0.1h-1.7l-1.3-0.1l0.5-0.1h2.6l0.8-0.1l0.5-0.1v-0.1L32.2,46h-2.6L29,45.9  l0.8-0.1h3.5l0.3-0.1l-0.2-0.2h-0.8l-1.4-0.1h-1l-0.8-0.1v-0.1h2.9l0.3,0.1l0.4-0.2l0.8-0.1v-0.2L32.1,45v-0.1l1.4-0.1  c0.3,0,0.4-0.1,0.5-0.2l-1.1-0.2h-1.4l-0.8-0.1v-0.1h1l0.4-0.1l1,0.1l0.9-0.2v-0.2h-2.1L31.2,44V44h0.6l1.4-0.1  c0.4,0,0.6-0.1,0.6-0.2l-0.7-0.1l-1.4-0.1l1.1-0.1l0.6-0.1c-0.1-0.2-0.2-0.2-0.4-0.2L32.3,43l1.6-0.2v-0.2l-1.7-0.2v-0.1h0.8  l0.8-0.1l-0.1-0.2L32.4,42l1.3-0.1l0.4-0.2l-0.3-0.1l-1.1-0.1v-0.1l1-0.1l0.3-0.1v-0.2l-0.9-0.1l1.2-0.2v-0.2l-1.1-0.1v-0.1l0.9-0.1  l0.4-0.2v-0.1l-1.5-0.2l0.6-0.1h0.6l0.3-0.2l-0.4-0.2l-1.1-0.2l1-0.1l0.3-0.1l-0.3-0.2l-0.8-0.1l0.9-0.3l-1.1-0.2v-0.1  c0.4,0,0.6-0.1,0.6-0.2v-0.1l-1-0.1c0.3,0,0.6-0.1,0.9-0.2l-0.7-0.2l-0.4-0.1v-0.1l0.8-0.2l-1-0.2l0.7-0.3l0.1-0.1l-1-0.2  c0.3,0,0.6-0.1,0.9-0.2l-1-0.2l0.5-0.2l0.2-0.1l-0.2-0.1l-0.7-0.1v-0.1l0.9-0.2l-0.9-0.2v-0.1l0.5-0.2l-1.1-0.3  c0.5,0,0.8-0.1,0.8-0.3l-0.8-0.2h-0.8L29.6,34.2z M21.2,37l0.4,0.2h0.7l2.5,0.2h0.5c-0.1-0.2-0.3-0.3-0.8-0.4h-0.1L22.7,37h-1.1  L21.2,37z M21.2,27.2L21.2,27.2l0.5,0.2l0.8-0.2l-0.8-0.2h-0.1L21.2,27.2z M21.3,9.2v0.2h0.5L21.3,9.2z M21.9,26.7l-0.3-0.1  c-0.2,0-0.3,0-0.3,0.1c0,0.2,0.1,0.3,0.3,0.3C21.7,27,21.8,26.9,21.9,26.7 M21.5,54c0.2,0.1,0.4,0.2,0.8,0.1  c-0.1-0.2-0.2-0.2-0.3-0.2C21.9,53.8,21.7,53.9,21.5,54 M22.2,36.1L22.2,36.1c0.3,0.2,0.7,0.3,1.2,0.3l0.6-0.3L23.4,36L22.2,36.1z   M22.3,10.9h0.4l0.1-0.1c-0.1,0-0.1-0.1-0.2-0.2L22.3,10.9z M22.3,11.4l0.3-0.1v-0.1L22.3,11.4L22.3,11.4z M22.4,13.2  c0,0.2,0.1,0.3,0.4,0.2l0.1-0.1c0.1-0.2,0-0.2-0.3-0.2L22.4,13.2z M22.7,12.7v0.2c0.2,0,0.3-0.1,0.4-0.2H22.7z M24.9,25.5L24.9,25.5  l-0.5,0.4l1,0.2l-0.2,0.2c-0.1,0.1-0.1,0.1,0.1,0.2l0.7,0.2l-1.5-0.2c0.1-0.2-0.1-0.3-0.3-0.3l-0.2-0.1L23.4,26l-0.2,0.1l-0.5,0.3  l0.7,0.2l-0.1,0.1c-0.2-0.1-0.3-0.1-0.5,0c0.1,0.1,0.2,0.1,0.5,0.2h0.2l0.3,0.1l-0.3,0.1h-0.4l-0.1,0.2l0.2,0.1l0.8,0.1l0.9,0.1  l0.9-0.1l1.5-0.1c0-0.2-0.2-0.2-0.5-0.2L25.5,27v-0.1l0.6,0.1l1,0.1l0.5-0.2c0-0.1-0.1-0.3-0.3-0.4l0.2-0.1  c-0.1-0.2-0.4-0.3-0.9-0.3l0.2-0.3l-0.3-0.1l-0.8-0.2v-0.1c0.3,0,0.4-0.1,0.5-0.2l-1.3-0.2l-0.4,0.1l-0.1,0.1c0,0,0,0.1,0.1,0.2  l0.2,0.1H24.9z M23.1,39.1c0,0.2,0.2,0.2,0.5,0.2h0.9l0.5-0.1l-0.5-0.2H23.1z M23.4,18.3l0.8,0.2c-0.1-0.2-0.2-0.3-0.4-0.3  S23.5,18.2,23.4,18.3 M23.4,54.7v0.2h0.2v-0.2L23.4,54.7z M23.5,40.6c0.3,0.2,0.6,0.3,1.1,0.2h0.2l0.5-0.2l-0.4-0.2L23.5,40.6z   M23.7,17.7c0.1,0.2,0.3,0.2,0.5,0.2c0.1,0,0.2,0,0.4-0.1L23.7,17.7z M23.7,41.6L23.7,41.6c0.2,0.2,0.3,0.3,0.4,0.3  c0.1,0,0.3-0.1,0.4-0.4C24.2,41.4,24,41.5,23.7,41.6 M23.8,37.8l1,0.1l1.7-0.2l-0.6-0.2h-1.4C24.1,37.5,23.9,37.6,23.8,37.8   M25,41.1L25,41.1L24.3,41L24,41.1l0.2,0.2C24.5,41.4,24.7,41.3,25,41.1 M24.5,10.2v0.2c0.6,0.1,1.1,0.2,1.6,0.2  c0.5,0,1-0.1,1.4-0.2c-0.1-0.2-0.3-0.2-0.8-0.2H24.5z M24.6,52.2L24.6,52.2l0.4,0.1c0.7,0,1-0.1,1.1-0.2h-1L24.6,52.2z M24.7,10.9  l1.7,0.2l0.5-0.2v-0.2h-1.7L24.7,10.9L24.7,10.9z M24.7,17.7v0.2c0.1,0.1,0.2,0.2,0.2,0.2c0.1-0.1,0.2-0.2,0.3-0.3H24.7z M24.7,42.9  l0.8-0.1l1.1,0.1h1l0.6,0.1l0.2,0.1l-1.1,0.1h-1.1L24.7,42.9z M24.7,11.4l0.9,0.1l0.4-0.2l-0.9-0.2L24.7,11.4z M24.7,11.9l0.4,0.1  h0.3v-0.2L24.7,11.9z M24.9,9.7v0.2l1.4,0.2h0.9c0.5,0,0.7-0.1,0.8-0.3H24.9z M25,38.1c0.1,0.2,0.2,0.2,0.5,0.2H26l0.5-0.1  c-0.1-0.2-0.3-0.2-0.8-0.2h-0.4L25,38.1z M25.2,8.8v0.2l0.7,0.2L26.6,9l0.5,0.1l0.8-0.2l-0.3-0.1l-0.8-0.1l-0.2,0.1l-0.3-0.1H25.2z   M30.9,4.3l-2.3,0.1l-1,0.1l0.2,0.1l-0.5,0.2h-2.1v0.2l3.4,0.2l0.4,0.1h0.6l1.9,0.1l1.1,0.1h-2.2l-0.8,0.1l0.1,0.2l0.3,0.1h0.8  l0.7,0.1l3,0.1v0.1h-4.2v0.2L36,6.3l-0.6,0.1h-2.7l-0.4-0.1l-1.1,0.1l0.3,0.2h1.1l0.4,0.1h3.6L37,6.9h-2.8l-0.9,0.1v0.2L34,7.2h1.5  l1.7,0.2L36,7.4h-2.3c0,0.2,0.1,0.2,0.3,0.2L35,7.7h2.3L38,7.8l0.8-0.1L39,7.8h-3.3l-1.1,0.1v0.2L36,8.1L38,8.2h1l0.5,0.2h-4.6v0.1  l1.2,0.2h2L40,8.8l-0.6,0.1l-1.2-0.1l-0.3,0.1l-1.1-0.1l-1.2,0.1l0.3,0.2h0.8l2.5,0.1l1.2,0.1l-1.5,0.1h-2.7v0.2l1.1,0.2h3l0.9,0.1  v0.1h-3.6V10l1.4,0.2h1.7l1.1,0.2h-2.9l-0.6,0.1L38,10.5l1.7,0.2l1.2,0.1h0.6l0.7,0.2h-4.2V11l1.1,0.2h1.1l1.2,0.1h1.1v0.1h-2.4  l-0.8,0.1v0.2l1.8,0.2h1.5l0.4,0.2h-3.4l-0.2,0.1V12l2,0.2l1.8,0.1L42,12.4l-1.1-0.1l-1,0.1v0.2l1,0.2h1.4l1.6,0.2h-3.7V13l0.8,0.2  l1.4,0.1h1.1l0.8,0.1v0.1h-3.6v0.2l1.3,0.2l2.1,0.1l0.6,0.1H41l-0.3,0.1v0.2l1.1,0.1h2.1l1.1,0.1v0.1h-3.1l-0.4,0.1v0.2l1.8,0.2h1.7  v0.1l-1.3,0.1h-1.7v0.2l2,0.2l1.7,0.1h-2.3l-1,0.1c0,0.1,0.1,0.2,0.3,0.2l0.5,0.1l2.7,0.1l-2.6,0.1c-0.3,0-0.6,0.1-0.9,0.2l1.2,0.1  l1.7,0.1h0.8v0.1h-2.7l-1,0.1l0.8,0.2l1.7,0.1l1.2,0.1v0.1h-2.4L42.6,17l0.5,0.1l0.9,0.1l0.5,0.1h2v0.1h-2.7c-0.5,0-0.8,0.1-0.8,0.2  v0.1l1.1,0.1h1.1l1.4,0.1l-1.4,0.1h-1.6v0.2l0.8,0.2h1.1l1.1,0.1l-1.5,0.1h-0.9l-0.1,0.2l0.8,0.2l1.4,0.1h0.8v0.1l-2.5,0.1v0.2  l2.6,0.2l-1.4,0.1h-0.8c0.1,0.2,0.2,0.3,0.4,0.3l1,0.1l0.8,0.1h-2c-0.4,0-0.6,0.1-0.6,0.2l0.8,0.1l2.2,0.1v0.1h-2l-0.8,0.2l0.5,0.1  l2.1,0.2v0.1l-1.1,0.1h-1.4v0.1l2.6,0.2l-1.9,0.2l0.5,0.2l0.8,0.1l0.4,0.2l-2,0.1v0.2l1.3,0.1h0.6l0.3,0.1v0.1h-1.6  c-0.3,0-0.5,0.1-0.5,0.2h1.1l1.1,0.2v0.1L47,22.9L45.9,23l0.5,0.2h0.7l0.6,0.1l-1.6,0.2h-0.5v0.2l1.7,0.2h0.4v0.1l-0.4,0.1h-1  c-0.3,0-0.5,0.1-0.5,0.2l1.1,0.1l1.7,0.2l-1.1,0.1h-1.4v0.2l1.5,0.1l1.5,0.2l-2.6,0.1v0.2l1.3,0.1l1.1,0.2v0.1h-1.4l-1.1,0.2v0.1  l3,0.2l-1.9,0.1h-0.5l-0.1,0.2l1.1,0.1l1.7,0.1v0.1l-1.9,0.1l-0.1,0.1l-0.2,0.1v0.1l1.3,0.1h0.7l0.5,0.1v0.1h-1.7  c-0.4,0-0.5,0.1-0.5,0.2l0.5,0.2l1.8,0.1v0.1h-1.7c-0.3,0-0.5,0.1-0.5,0.2v0.1l1.5,0.1l0.8,0.1l-0.5,0.1h-0.9  c-0.3,0-0.5,0.1-0.5,0.2l0.5,0.2h1.4v0.1l-1.3,0.1c-0.3,0-0.4,0.1-0.4,0.2l0.5,0.1l1.4,0.1l-0.3,0.1h-1L48.4,29v0.1  c0,0.2,0.1,0.2,0.3,0.2h1.1l0.4,0.1h-1.3c-0.3,0-0.4,0.1-0.3,0.3l0.4,0.1l1.4,0.1L49,29.9L48.5,30c-0.1,0.1,0.1,0.2,0.4,0.2h1.5v0.1  L50,30.4H49c-0.3,0-0.4,0.1-0.5,0.2l0.8,0.2h1l-1.2,0.1L48.7,31V31c-0.1,0.2,0.1,0.2,0.3,0.2h1.3v0.1H49l-0.4,0.1v0.1  c-0.1,0.2,0.1,0.2,0.4,0.2l1.2,0.1L48.7,32l-0.1,0.1l1.7,0.2L50,32.3l-0.6,0.1L49,32.5l0.9,0.3h0.3l-1.1,0.1L48.6,33l1.3,0.3  l-1.4,0.2l0.5,0.2l0.9,0.1l-0.5,0.1h-0.5l-0.2,0.2v0.1l1.4,0.1l-0.9,0.2H49l-0.4,0.2v0.1l0.6,0.1l0.5,0.1v0.1H49  c-0.3,0-0.4,0.1-0.5,0.2l1.3,0.2v0.1h-1.3c-0.3,0-0.4,0.1-0.3,0.2l0.3,0.2l1,0.1l-1.1,0.1L48,36l0.2,0.2h0.5l0.5,0.1l-0.7,0.1  l-0.8,0.1l-0.1,0.1l0.3,0.2l0.9,0.1v0.1l-1.3,0.1l0.1,0.2l0.5,0.1l0.5,0.1v0.1h-0.9c-0.2,0-0.3,0.1-0.2,0.2l0.2,0.1l0.5,0.2h-0.6  l-0.2,0.1l-0.1,0.2l0.6,0.2l-0.4,0.1h-0.3l-0.2,0.2l0.6,0.2l-0.6,0.1c-0.1,0-0.2,0-0.2,0.2c0,0.1,0.1,0.1,0.2,0.2h0.1l0.2,0.1  l-0.6,0.2l-0.1,0.2l0.4,0.2l-0.5,0.1c-0.2,0.1-0.2,0.1-0.2,0.2l0.2,0.2l0.4,0.1v0.1c-0.3,0-0.5,0.1-0.5,0.2l0.1,0.2l-0.3,0.3  l0.2,0.2l-0.4,0.2v0.1l0.2,0.2l-0.5,0.2v0.2l-0.5,0.5l0.8-0.1l0.1-0.3l0.2-0.2l0.1-0.2l0.4-0.3l0.1-0.2l0.2-0.3l0.2-0.2l0.2-0.2  l0.1-0.2l0.4-0.5l-0.2-0.1l0.5-0.2l-0.2-0.3l0.4-0.2v-0.1l-0.2-0.2l0.4-0.3v-0.2L49,38l0.1-0.2l0.2-0.2v-0.3l0.4-0.2l-0.1-0.2  l0.6-0.2l-0.1-0.3l0.2-0.5l0.3-0.2v-0.3l0.2-0.2v-0.3l0.2-0.2v-0.4c0.3-0.1,0.4-0.2,0.3-0.4l-0.1-0.2l0.1-0.1l0.1-0.3v-0.1l0.2-0.2  l-0.1-0.4c0.2,0,0.2-0.2,0.2-0.5v-0.1c0.2-0.1,0.2-0.1,0.2-0.2c0-0.1-0.1-0.2-0.2-0.3l0.2-0.4l-0.2-0.2l0.2-0.1V31l-0.1-0.1l0.4-0.2  l-0.4-0.4h-0.1c0.3-0.2,0.4-0.3,0.2-0.4l-0.2-0.1c0.3,0,0.4-0.1,0.4-0.2L52,29.4l-0.6-0.1v-0.1c0.4,0,0.7-0.1,0.8-0.2l-0.7-0.1v-0.1  l0.8-0.2c-0.1-0.2-0.4-0.3-0.9-0.3v-0.1l0.9-0.2l-1.1-0.3l0.5-0.2l0.2-0.1c0.1-0.1,0.1-0.2-0.2-0.2l-0.8-0.1l1.1-0.2L51.5,27  l-0.5-0.1v-0.1l1.1-0.1l0.1-0.2l-0.9-0.2l-0.4-0.1l0.7-0.1l0.5-0.2L51.5,26l-0.8-0.1v-0.1l1-0.2c-0.1-0.2-0.4-0.3-1-0.3l1-0.2  c-0.1-0.1-0.3-0.2-0.6-0.2h-0.5v-0.1h0.3l0.7-0.3v-0.1l-1.4-0.2l0.5-0.1l0.4-0.2l-1-0.2l0.5-0.1l0.5-0.1l-0.4-0.2h-0.1L50,23.4  l0.6-0.2l0.5-0.2v-0.1L50.4,23l-0.7-0.2l0.5-0.2v-0.1l-0.6-0.2l0.5-0.3l-0.6-0.2l0.9-0.2l0.1-0.1l-1-0.2l0.8-0.2l-0.5-0.2L49,20.8  l0.6-0.1l0.2-0.1l-0.2-0.2l-0.8-0.2v-0.1l1.1-0.2L49.5,20l-1-0.1v-0.1l0.7-0.1l0.5-0.2l-1.1-0.2l0.5-0.3l-0.6-0.2  c0.4,0,0.6-0.1,0.8-0.3l-1.1-0.2v-0.1l0.5-0.2L48,17.9l0.5-0.2l0.1-0.1l-0.8-0.2l0.4-0.3l-0.6-0.2l0.8-0.3l-1-0.2l0.2-0.2l-0.5-0.4  l0.4-0.2l-0.8-0.4c0.1,0,0.2-0.1,0.2-0.2C46.9,15,46.8,15,46.8,15l-0.5-0.2l0.3-0.2v-0.2l-0.5-0.1l0.2-0.4l-0.5-0.2l1.3-0.2  c-0.4-0.1-0.9-0.2-1.5-0.5l0.6-0.2V13l-1-0.3l0.4-0.2v-0.1l-0.9-0.2l0.6-0.2v-0.2l-0.9-0.1v-0.1l0.9-0.1l0.3-0.2l-0.4-0.1l-1.1-0.2  v-0.1l0.5-0.2l-0.8-0.3l0.7-0.1l0.3-0.2v-0.1l-1.5-0.2l1.1-0.2L43.9,10l-1.3-0.1V9.8l0.7-0.2l0.2-0.1l-0.3-0.2l-1-0.2l0.4-0.2  L42.6,9L42,8.8l0.6-0.3l-1.6-0.1V8.3l0.6-0.2l-0.9-0.2l0.6-0.2l-0.8-0.2H40l0.8-0.1l0.2-0.2L40.8,7l-0.7-0.2  c0.2-0.1,0.3-0.2,0.2-0.4l0.4-0.2h-0.4l-0.6-0.1c0,0.2-0.2,0.2-0.6,0.2l-0.4,0.1l0.4,0.4C38.9,7,38.7,7,38.7,7.1v0.2l0.1,0.1  l-0.3-0.1c0-0.2,0-0.3-0.2-0.4l-0.1-0.1V6.8l0.2-0.4V5.6l-0.5-0.1l-1.3-0.2l0.2-0.2L35.9,5l-1.7-0.1l0.5-0.2V4.6l-1.3-0.2l-1.7-0.1  l2.2-0.1V4L33.5,4h-0.7l-2-0.1h-2.3L28.1,4l0.2,0.1l0.5,0.1h0.9L30.9,4.3z M25.3,9.3v0.2l0.8,0.1l1.4,0.1l0.6-0.2l0.1-0.1l-1.5-0.1  L25.3,9.3z M25.4,49.7l0.7,0.1l0.2,0.1l0.2,0.3l0.8,0.2l0.9,0.1c0.2-0.1,0.2-0.1,0.2-0.2l-0.2-0.1L27.6,50l-0.4-0.2l-0.4-0.2  l-0.3-0.2c-0.3,0-0.5-0.1-0.7-0.1C25.6,49.4,25.5,49.5,25.4,49.7L25.4,49.7z M25.6,36.1l0.3,0.2l0.6,0.2l0.5-0.2  c-0.1-0.2-0.5-0.3-1.1-0.3L25.6,36.1z M25.9,21.4l0.2,0.1l0.4-0.1l0.1-0.1l-0.2-0.1C26.1,21.1,26,21.1,25.9,21.4L25.9,21.4z   M25.9,38.5c0,0.2,0.1,0.3,0.3,0.3l0.8,0.1l0.4-0.1v-0.1l-0.5-0.2l-0.4-0.1H25.9z M26,7.8v0.2c0.2,0.1,0.4,0.2,0.5,0.2  c0.2,0,0.3-0.1,0.4-0.3H26z M31,21.8c0.1,0.3,0.3,0.4,0.6,0.4L31,22.2l-0.2,0.1c-0.1,0.2,0,0.2,0.2,0.2h0.5l0.5,0.1l-0.3,0.1H31  l-0.5,0.1l-0.7-0.1l-0.5,0.2l0.2,0.2l-0.6,0.1l-0.3,0.3l0.7,0.1H30l-0.6,0.1l-1.1-0.1c-0.4,0-0.6,0.1-0.6,0.3V24l0.6,0.1l-0.4,0.2  l0.8,0.2l-0.4,0.2l0.1,0.2l0.4,0.1l0.8,0.1l-0.8,0.1l-0.5,0.1L27.6,25l0.1-0.2L27,24.5l0.2-0.1c-0.1-0.2-0.4-0.3-0.8-0.3l-0.3,0.2  l0.1,0.1l0.3,0.2v0.1l-0.1,0.1c-0.1,0.2,0,0.3,0.4,0.3h0.1l-0.6,0.3l0.7,0.1l0.4,0.2v0.1c-0.1,0.2,0.1,0.3,0.5,0.3l0.5,0.1v0.1  l-0.5,0.1c-0.2,0-0.3,0-0.2,0.2l0.2,0.1h1.9c0.4,0,0.6-0.1,0.6-0.2l-0.8-0.1h-0.9l0.5-0.2h1.1l1.1-0.2l-0.8-0.2l-1.4-0.1l-0.6-0.1  v-0.1l2.8,0.1c0.6,0,1-0.1,1.1-0.3h-0.6l-1.1-0.1l0.5-0.2l1.1,0.1l0.3-0.1c0.5,0,0.7-0.1,0.8-0.2l-1-0.1h-0.8l-0.9-0.2h2.2l1.1-0.1  l0.1-0.1l-0.5-0.2l-1.6-0.2h2.1l0.5-0.1l0.1-0.2l-0.2-0.1h-0.7l-1.7-0.1h-0.9v-0.1h3.3c0.6,0,0.9-0.1,1-0.2l-2-0.2l0.6-0.1h0.9v0.2  l0.3-0.2l0.4-0.2l-2.1-0.1l-0.6-0.2v-0.2l-0.7-0.2v-0.4H31z M26.3,22l0.7-0.1l1.7,0.1h0.6l0.2,0.1l-0.2,0.1l-0.5,0.1h-1.8  C26.6,22.2,26.4,22.1,26.3,22 M28,40.8c-0.2-0.3-0.5-0.4-1.1-0.2h-0.1l-0.4,0.1v0.1c-0.1,0.1,0.1,0.2,0.4,0.2h0.8L28,40.8z   M26.4,13.5l0.5-0.1c0.4,0,0.6,0.1,0.8,0.2L27,13.8L26.4,13.5L26.4,13.5z M26.4,14.1l0.8-0.2l0.4,0.1l0.3,0.2l-0.3,0.3l0.3,0.3h-0.1  l0.2,0.5l-0.1,0.2l0.2,0.2l-0.9,0.1l-0.4-0.2v-0.1l0.5-0.2l-0.5-0.2L27,15l0.2-0.1l-0.2-0.2l-0.5-0.2l0.5-0.1l-0.2-0.2L26.4,14.1z   M26.5,8.3l0.1,0.2l0.2-0.1l-0.1-0.1H26.5z M26.5,39.1c0.2,0.4,0.5,0.5,0.9,0.3l0.3-0.3H26.5z M26.5,52.2l0.4,0.1l1.1-0.1l-0.6-0.3  C27,51.8,26.7,51.9,26.5,52.2 M26.6,41.3l0.7,0.1c-0.3,0.1-0.5,0.2-0.5,0.4h0.7v-0.2l-0.2-0.1v-0.1l0.6-0.2v-0.1  c-0.3-0.1-0.5-0.1-0.7-0.1C26.9,40.9,26.7,41,26.6,41.3 M26.6,19.8l0.4,0.2c0.3,0.1,0.4,0,0.5-0.2L26.6,19.8z M26.6,51.6l0.5,0.2  h1.1l1.2-0.2c-0.1-0.2-0.4-0.2-0.8-0.2h-0.7L26.6,51.6z M26.7,13.2c0.1-0.1,0.1-0.1,0.2-0.1c0.1,0,0.2,0.1,0.2,0.2L26.7,13.2z   M26.9,19.5h1.3l0.5-0.1c0.2,0.1,0.3,0.1,0.4,0.1c0.2,0,0.3-0.1,0.3-0.2h-0.9L28,19.2l-0.4,0.1C27.2,19.1,26.9,19.2,26.9,19.5   M26.9,39.7c0.2,0.1,0.4,0.2,0.5,0.2c0.2,0,0.3-0.1,0.4-0.2l0.1-0.1C27.4,39.5,27.1,39.6,26.9,39.7 M26.9,8.2  c0.1,0.2,0.1,0.3,0.2,0.3c0.1,0,0.1,0,0.2-0.1l0.1-0.1L26.9,8.2z M26.9,40.1c0.1,0.2,0.3,0.3,0.5,0.3c0.1,0,0.2,0,0.4-0.1l0.2-0.2  L27.5,40L26.9,40.1z M27.1,53.2L27.1,53.2l0.1-0.1h-0.1V53.2z M27.2,47.7l0.8,0.2h1.8l1.4,0.1l0.5-0.1h0.3l0.5-0.2l-0.6-0.1L31,47.5  l-2.7-0.1l-0.5,0.1L27.2,47.7L27.2,47.7z M27.4,22.5l0.8-0.1c0,0.1-0.1,0.2-0.3,0.2C27.7,22.6,27.6,22.6,27.4,22.5 M27.5,53.8  l0.4-0.2L27.5,53.8L27.5,53.8z M27.8,26.8c0.1,0.2,0.2,0.3,0.3,0.3l0.3-0.2l0.2-0.1C28.4,26.7,28.1,26.7,27.8,26.8 M27.8,50.7  l0.8,0.2V51c-0.5,0-0.8,0.1-0.8,0.2v0.1h1.3c0.3,0,0.4-0.1,0.5-0.2l-0.9-0.2l0.8-0.2l-0.8-0.2h-0.5L27.8,50.7z M28.1,48.1v0.2  l0.9,0.2h3.1l0.2-0.2l0.1-0.2h-1.2L29.4,48L28.1,48.1z M28.1,12.7l0.3-0.2c0.5-0.1,0.9,0,1.1,0.2l-0.8,0.1L28.1,12.7z M28.3,13.1  c0.2-0.1,0.3-0.1,0.5-0.1c0.3,0,0.5,0.1,0.8,0.2l-0.4,0.2C28.6,13.3,28.4,13.2,28.3,13.1 M28.8,13.8c-0.3,0-0.4-0.1-0.4-0.2l0.1-0.2  h0.4c0.5,0,0.9,0.1,1.1,0.2l-0.7,0.2l0.7,0.4l-0.5,0.2l0.4,0.4l-0.5,0.2l0.5,0.3l-1-0.1l-0.1-0.2l-0.1-0.3v-0.2l-0.1-0.2L28.8,13.8z   M28.4,12.2c0.2-0.2,0.4-0.3,0.6-0.2l0.3,0.2l-0.5,0.1L28.4,12.2z M28.4,21.5c0.4,0.1,0.7,0,0.8-0.2C28.7,21.1,28.4,21.2,28.4,21.5  L28.4,21.5z M28.6,3.5l0.5,0.2l1.1,0.1h4.6V3.6l-1.1-0.2h-4.2L28.6,3.5z M32.1,48.6l-0.7-0.1l-0.6,0.1l-0.9-0.1h-1.1l-0.2,0.1  l0.1,0.2l0.7,0.1H31l0.6,0.1C31.9,48.8,32,48.7,32.1,48.6 M28.8,31.3h0.8v-0.2h-0.8L28.8,31.3L28.8,31.3z M29,31.7v0.2l0.5,0.1  l0.8-0.1c-0.2-0.2-0.3-0.2-0.5-0.2L29,31.7z M29.1,49.1v0.2l0.8,0.2l0.6-0.1c0-0.2-0.1-0.2-0.4-0.2H29.1z M29.2,32.3  c0.2,0.1,0.4,0.1,0.6,0.1c0.3,0,0.5,0,0.7-0.1l-0.2-0.2c-0.2-0.2-0.4-0.2-0.6-0.1h-0.1l-0.2,0.1L29.2,32.3z M29.4,11.2  c0.2-0.2,0.3-0.2,0.5-0.2c0.2,0,0.3,0,0.5,0.1h0.1l0.3,0.2H30L29.4,11.2z M29.4,24L30,24l0.5,0.1v0.1c-0.2,0.1-0.3,0.1-0.5,0.1  C29.8,24.2,29.6,24.2,29.4,24L29.4,24z M29.5,32.7c0.2,0.3,0.4,0.3,0.8,0.2h0.3l0.2-0.2c-0.2-0.1-0.4-0.2-0.6-0.2  S29.8,32.6,29.5,32.7L29.5,32.7z M29.6,11.7l0.3-0.2H30l1,0.2c-0.1,0.1-0.3,0.1-0.5,0.1C30.2,11.8,29.9,11.8,29.6,11.7 M29.7,6.6  l0.7-0.2L29.7,6.6L29.7,6.6z M29.7,15.5l0.4,0.1c0.4-0.1,0.7-0.1,0.8,0.1c-0.1,0-0.2,0.1-0.3,0.1c-0.1,0-0.4,0-0.6-0.1L29.7,15.5z   M29.7,33.9l1.1,0.1l0.7-0.2c-0.3-0.2-0.7-0.3-1.3-0.2h-0.1C29.9,33.6,29.7,33.7,29.7,33.9 M29.8,33.4l0.8,0.1l0.5-0.2l-0.2-0.1  c-0.3-0.1-0.5-0.1-0.6-0.1C30,33.1,29.9,33.2,29.8,33.4L29.8,33.4z M29.9,12l1.3,0.2v0.1l-0.5,0.2c0.4,0,0.6,0.1,0.7,0.2l-0.6,0.2  l0.6,0.3v0.1l-0.5,0.1v0.1l0.5,0.2l-0.3,0.2V14l0.1,0.1v0.1l-0.7,0.2l-0.3-0.1l0.2-0.3l-0.2-0.3l0.1-0.1h0.1l0.1-0.1l-0.2-0.2  l0.1-0.3L30,12.6l0.1-0.1h0.2L29.9,12L29.9,12z M31.3,14.8h-1l-0.1-0.2l0.3-0.1C31,14.5,31.2,14.6,31.3,14.8 M30.2,15.1  c0.2-0.1,0.3-0.2,0.5-0.2c0.1,0,0.2,0.1,0.3,0.2l0.1,0.1L30.2,15.1L30.2,15.1z M32.9,23.2l-2,0.1l-0.5-0.1l-0.2-0.1l0.2-0.2h0.9  L32.9,23.2z M30.4,44.9L30.4,44.9h0.9h0.6l-0.5-0.1h-0.5L30.4,44.9z M31.2,11.2c0.3-0.1,0.6-0.1,0.8,0.1L31.2,11.2z M31.2,29.4  l1.1,0.1h1.8l1.4,0.1H38l4.1,0.1l1.1-0.1v-0.2l-10.7-0.2C31.8,29.2,31.4,29.3,31.2,29.4 M31.5,11.6l0.8,0.2v0.2l0.3,0.2l-0.2,0.3  l0.4,0.2l-0.2,0.2l-0.2,0.1l0.5,0.4h-0.2l-0.2,0.1v0.2l0.4,0.2l0.1,0.1L32.4,14l0.6,0.2l-0.5,0.4l0.3,0.1L32.4,15l0.2,0.1l0.1,0.1  l-0.4,0.2l-0.1,0.1l0.3,0.3l-0.4,0.1L32,16l0.3,0.1h0.8l0.3,0.2L32,16.3l-0.8-0.1l0.3-0.8l0.1-0.3l0.2-0.2l-0.1-0.2l0.2-0.2  l-0.1-0.3l0.2-0.2l-0.2-0.2l0.2-0.2l-0.1-0.3l0.2-0.3h-0.1l-0.2-0.3l0.2-0.2l-0.2-0.2v-0.1l0.1-0.2l-0.2-0.1L31.5,11.6z M31.6,21.5  h0.2l0.3-0.2v-0.1c0-0.1-0.1-0.1-0.2-0.2c-0.1,0.1-0.2,0.1-0.2,0.2L31.6,21.5z M31.6,29.7c0,0.2,0.2,0.2,0.6,0.2l2.1,0.1h2l0.4,0.1  h6.5c-0.1-0.2-0.3-0.3-0.7-0.3h-2.1l-6.4-0.1l-0.4-0.1L31.6,29.7z M31.6,30.4l1.3,0.1h1l1.4,0.1h3.3l0.9,0.1H41l2.3-0.1  c0-0.2-0.2-0.2-0.5-0.2l-1.7-0.1l-8.9-0.1C31.9,30.2,31.7,30.3,31.6,30.4 M31.6,51.6c0.1,0.2,0.2,0.3,0.3,0.3l0.3-0.2l0.1-0.2H31.6z   M35.5,15l0.6,0.2l-0.6,0.2v0.2l0.5,0.2l-0.7,0.1L35,16.1l0.7,0.1l-0.6,0.2H35l-0.4,0.3l0.6,0.2h-0.6l-0.3,0.1L33.9,17l0.8,0.2v0.1  H34l-0.3,0.2l0.5,0.2v0.1l-0.9,0.1h-0.6l0.6,0.3h1.1l0.5-0.1l0.2-0.4l0.4-0.1l0.3-0.2v-0.1c-0.1-0.1-0.1-0.1,0.2-0.1  c0.3-0.1,0.5-0.1,0.7,0.1c-0.4,0-0.5,0.1-0.4,0.2l0.5,0.2l-0.9,0.1l-0.2,0.1l-0.1,0.2l0.8,0.1v0.1h-0.5c-0.5,0-0.8,0.1-0.9,0.2  l0.8,0.2v0.1L35,18.8L34.7,19l0.2,0.2l-0.5,0.1h-1.4l-0.4,0.2l-0.2-0.1l-0.4-0.2l0.5-0.2c0-0.2-0.2-0.3-0.5-0.4v-0.1  c0.2-0.1,0.2-0.1,0.2-0.2c0-0.1,0-0.1-0.1-0.2L32,18.2l0.2-0.3l-0.3-0.2l0.9-0.1l0.4-0.2l-0.2-0.2c-0.1-0.1-0.3-0.1-0.7,0.1h-0.1  l-0.5-0.1l0.1-0.2l-0.2-0.3l1.2-0.1l-0.6,0.2c0,0.2,0.2,0.3,0.5,0.3l0.7-0.1l0.5-0.1l-0.2-0.3l0.5-0.2v-0.1l-0.1-0.2l0.6-0.2  l-0.1-0.4l0.5-0.2v-0.2L35,15.2L35.5,15z M31.8,51.1l0.4,0.2c0.6,0,0.9-0.1,1-0.2l-1-0.1L31.8,51.1z M32,30.7c0,0.1,0.1,0.2,0.3,0.2  h1.2l4.9,0.2L38,31.2h-5.3l-0.4,0.2l1.2,0.2l2.4,0.1h1.1l0.5,0.1l-1.4,0.1h-3.1c0,0.2,0.1,0.2,0.2,0.2l0.8,0.1h1.7l1.3,0.1l-0.5,0.1  h-3.9l0.1,0.2h0.2l0.7,0.1h0.8l1.3,0.1h0.6l0.4,0.1v0.1h-3.2l-0.2,0.1l0.2,0.2l0.6,0.1h1.5l0.9,0.1v0.1h-2.1c-0.5,0-0.8,0.1-0.9,0.3  l1.1,0.1h1.2l0.7,0.1l-0.6,0.1l-1.2-0.1c-0.4,0-0.6,0.1-0.7,0.3l1.7,0.1l0.6,0.1l-0.8,0.1l-0.8-0.1l-0.5,0.2v0.1l0.5,0.1h0.5l1,0.1  l-0.6,0.1h-1l-0.5,0.1v0.1l0.5,0.2l0.5,0.1l1.1,0.1h-1.2l-0.6,0.3l1.1,0.1l0.7,0.2l-1.6,0.1l0.4,0.3h1.3v0.1L35,36.2l0.4,0.3h0.4  l0.9,0.1l-0.5,0.1l-0.9,0.1v0.2l1.1,0.2h0.4c0.1,0.1,0,0.1-0.2,0.1h-0.8l-0.3,0.1c-0.1,0.2,0,0.2,0.3,0.2l1.2,0.1v0.1h-0.8  c-0.3,0-0.5,0.1-0.5,0.3l0.9,0.1L37,38l0.2,0.2L37,38.2l-1.1,0.1l-0.1,0.2l1.5,0.2h-0.5l-0.5,0.1c-0.1,0-0.1,0-0.2,0.1  c0.1,0.1,0.2,0.1,0.3,0.2h0.8l0.2,0.2h-0.8l-0.3,0.1l-0.1,0.1l0.8,0.2l0.5-0.1l0.2,0.4l0.1,0.3l0.1,0.2l0.2,0.2l0.1,0.3l0.2,0.3  l0.5,1.1l0.1,0.2l-0.2,0.2l0.3,0.2v0.3l0.1,0.2l-0.5,0.2v0.1l0.2,0.1H39l-0.2,0.2l-0.1,0.1l-0.1,0.2l0.3,0.2l-0.5,0.2l0.5,0.1  l-0.3,0.4l0.1,0.1v0.1l-0.4,0.2l-0.2,0.2l-0.3,0.2l-0.2,0.4L37,46.7l-0.4-0.1c-0.4,0-0.5,0.1-0.5,0.2l0.2,0.2h0.7l-0.6,0.2H36v0.2  l0.5,0.1l-0.9,0.2L36,48l-0.9,0.2l0.4,0.2l-0.7,0.2l-0.1,0.2l0.2,0.1l-0.5,0.2c-0.2,0.1-0.2,0.2,0,0.3l-0.7,0.2l-0.1,0.2l0.2,0.1V50  l-0.8,0.2v0.1l0.5,0.2l0.8-0.2l0.3-0.3l0.5-0.2c0.1-0.1,0.2-0.1,0.2-0.2c-0.1-0.1-0.1-0.2-0.2-0.2c0.4,0,0.5-0.1,0.5-0.3V49  c0.3,0,0.5-0.1,0.7-0.3L36,48.5l0.7-0.1c0.2-0.1,0.2-0.1,0.2-0.2c0,0-0.1-0.1-0.2-0.1l0.7-0.3l-0.2-0.2l0.3-0.1l0.4-0.1L38,47h0.2  c0.3-0.1,0.4-0.3,0.4-0.5l0.5-0.1l0.1-0.1c-0.1-0.1-0.1-0.2-0.1-0.2l-0.1-0.1V46c0.5,0,0.6-0.1,0.5-0.2l-0.1-0.2l-0.2-0.1l0.6-0.3  L39.7,45l0.4-0.2l0.1-0.1l-0.4-0.2c0.3-0.2,0.4-0.3,0.3-0.4l-0.1-0.1l0.2-0.1l0.2-0.2l-0.1-0.1l-0.5-0.2c0.3,0,0.4-0.1,0.5-0.2  l-0.5-0.2c0.2,0,0.3-0.1,0.2-0.3l-0.2-0.2l0.1-0.1c0.1-0.2,0-0.3-0.3-0.4h-0.1l0.1-0.2l0.1-0.1c0-0.1-0.1-0.2-0.2-0.3l-0.1-0.1  l-0.2-0.4L39,40.8l-0.2-0.1l-0.1-0.3l-0.2-0.2l-0.1-0.4l-0.2-0.5l-0.2-0.2l0.1-0.3L38,38.6h0.1v-0.3l-0.2-0.2v-0.2l-0.2-0.3l0.1-0.2  L37.6,37c0.2,0,0.3,0,0.2-0.2l-0.1-0.2l-0.2-0.2l0.1-0.1c0-0.1-0.1-0.2-0.1-0.2l-0.1-0.1l0.1-0.2l-0.2-0.4l0.2-0.2l-0.2-0.3l0.1-0.2  l-0.1-0.3l0.2-0.2l-0.2-0.3v-0.1c0.1-0.1,0.2-0.1,0.2-0.2c-0.1-0.1-0.1-0.2-0.2-0.3l0.1-0.1c0.1-0.1,0.2-0.1,0.2-0.2l-0.2-0.3  l0.3-0.2v-0.2l-0.1-0.1l0.5-0.2v-0.1l-0.1-0.2l0.5-0.2l0.2-0.2l0.8-0.2h1l0.5,0.1l0.2,0.3V32l0.5,0.2l-0.1,0.2l0.4,0.3v0.1  c-0.2,0.2-0.2,0.3,0,0.3l0.3,0.1l-0.3,0.2l0.6,0.4l-0.2,0.3l0.1,0.1v0.4l0.2,0.2L42.4,35l0.6,0.2h0.1c0.2-0.1,0.2-0.1,0.2-0.2  c0,0,0-0.1-0.1-0.2l-0.2-0.1l0.3-0.2v-0.2l-0.1-0.2l0.5-0.1c0.2-0.1,0.2-0.2-0.1-0.3l-0.2-0.1l0.3-0.1c0.1,0,0.2,0,0.2-0.1  c-0.1-0.1-0.1-0.2-0.2-0.2L43,33.2l-0.2-0.3v-0.1l-0.5-0.2l0.2-0.2c0.1-0.2-0.1-0.3-0.4-0.3v-0.2c0.1,0,0.1-0.1,0.2-0.2l-0.5-0.2  l-0.2-0.3l-0.5-0.2l0.4-0.2l-1-0.2H32z M32.2,10.7l0.5-0.2c0.2-0.1,0.3-0.2,0.5-0.2c0.2,0,0.4,0.1,0.5,0.3l0.3,0.5v0.3l0.3,0.2v0.1  l-0.1,0.1V12l0.1,0.1l0.2,0.1l0.1,0.2h-0.1l-0.2,0.2c0.1,0.1,0.2,0.1,0.3,0.2l0.2,0.1v0.1l-0.3,0.2l0.1,0.2l0.4,0.2h-0.2l-0.1,0.1  c-0.1,0-0.1,0.1,0.2,0.3v0.2l-0.4,0.1l0.5,0.3l-0.5,0.2l0.5,0.3l-0.5,0.2L34.1,15l0.3,0.2l-0.5,0.2l0.1,0.2l-0.8,0.2l-0.3-0.2  l0.2-0.3v-0.3l0.4-0.2l-0.2-0.2l0.2-0.3v-0.3l0.1-0.2l-0.1-0.2l0.1-0.2l-0.1-0.2c0.1-0.1,0.2-0.2,0.3-0.3c-0.2-0.1-0.3-0.2-0.3-0.3  l0.1-0.1l0.2-0.1l-0.4-0.3l0.2-0.2l-0.4-0.2v-0.3l-0.4-0.2L33,11L32.2,10.7z M43,29.1l-0.5-0.2h-1.6L33,28.7l-0.5,0.2l0.1,0.2H33  l1.9,0.1h5.2l2.1,0.1L43,29.1z M32.6,18.3c0,0.2,0.4,0.2,0.9,0.2H34v-0.2l-0.5-0.1h-0.4L32.6,18.3z M32.9,18.7l-0.2,0.1V19H33  l0.8,0.1c0.2,0,0.3-0.2,0.2-0.3h-0.2L32.9,18.7z M33.5,50.7l-0.2-0.2l-0.5,0.2v0.1c0.1,0.2,0.2,0.2,0.4,0.2c0.1,0,0.1,0,0.2-0.1  l0.1-0.1L33.5,50.7z M33,28.3c0.1,0.2,0.4,0.2,0.8,0.2l1.8,0.1l6.2,0.1l1.4-0.2v-0.2l-0.8-0.1h-4.2l-2.4-0.1H34L33,28.3z M33.5,27.4  l0.4,0.2H36l2.4,0.1h1.8l0.5,0.1h1.7l0.4-0.1l0.1-0.1l-0.1-0.2h-0.5l-1.6-0.1h-1.4l-5.2-0.1L33.5,27.4z M33.5,27.8L34,28l1.7,0.1  l6.3,0.1l0.5-0.1v-0.2L42,27.8l-3.1-0.1h-2.2L36,27.7h-1.6L33.5,27.8z M37,21.8h-0.6L35,21.8h-0.5L34.4,22l0.6,0.1h1.4  C36.7,22.1,36.9,22,37,21.8 M34.6,26.9l0.7,0.2h1.3l1.4,0.1h3.5l1.2-0.1l-0.2-0.3l-0.4,0.1h-1.1l-1.7-0.1h-4.3L34.6,26.9z M34.7,51  h0.2v-0.2h-0.2V51z M35.4,14.7l0.7,0.1L35.4,14.7L35.4,14.7z M35.4,14.2c0.1-0.1,0.1-0.2,0.2-0.2c0.1,0,0.2,0.1,0.4,0.2L35.4,14.2z   M35.4,19.3c0-0.2,0.1-0.2,0.3-0.2l0.6,0.1L36,19.3H35.4z M35.7,26.4l0.5,0.2l1.2,0.1h5.3v-0.2l-1.4-0.1h-0.9L38,26.2L35.7,26.4z   M35.9,25.9c0,0.2,0.2,0.2,0.5,0.2h1.1l1.7,0.1h2.3l1-0.1v-0.2l-1.7-0.1h-3.5L35.9,25.9z M36.2,16.8c0-0.1,0.1-0.2,0.3-0.2  c0.1,0,0.2,0,0.3,0.1h0.1L36.2,16.8z M36.4,25.5l1.1,0.2h1.2l1.1,0.1l0.5-0.1l1.2,0.1l1.1-0.2l-0.4-0.2h-1l-3.6-0.1l-0.9,0.1  L36.4,25.5z M36.4,39.8c0.1,0.3,0.4,0.3,0.8,0.2h0.2c-0.1-0.3-0.3-0.4-0.8-0.2H36.4z M36.5,18.6l0.2,0.2L36.5,18.6L36.5,18.6z   M37,46.2h-0.3c-0.1,0.1-0.2,0.1-0.2,0.1c0,0.1,0,0.1,0.1,0.1h0.2l0.1-0.1L37,46.2z M36.7,40.9c0.2,0.1,0.4,0.1,0.6,0.1  c0.2,0,0.4,0,0.5-0.1c-0.2-0.2-0.3-0.3-0.5-0.2h-0.2C36.9,40.7,36.8,40.8,36.7,40.9 M37.7,40.4c-0.2-0.2-0.4-0.3-0.6-0.2H37  l-0.2,0.1c-0.1,0.1,0,0.1,0.2,0.2L37.7,40.4z M37.8,41.5v-0.2l-0.7-0.1l-0.2,0.2l0.2,0.2L37.8,41.5z M37,45.9h0.2v-0.2H37V45.9z   M37.5,45.2h-0.2c-0.2,0-0.3,0.1-0.2,0.2h0.3L37.5,45.2z M37.1,5.8l0.5-0.2l0.2,0.2v0.1L37.6,6L37.1,5.8L37.1,5.8z M38,42  c-0.1-0.2-0.3-0.3-0.7-0.3l-0.2,0.1V42H38z M37.1,42.3c0.1,0.2,0.2,0.2,0.4,0.2s0.3-0.1,0.5-0.2h0.1l-0.5-0.2L37.1,42.3z M37.1,44.9  l0.2,0.1l0.2-0.1l0.1-0.2h-0.4L37.1,44.9z M38,42.8l-0.5-0.2l-0.2,0.2l0.2,0.2L38,42.8z M37.3,44.2v0.2l0.2,0.1l0.1-0.2l-0.1-0.1  H37.3z M37.3,43.2c-0.1,0.1-0.1,0.2,0.1,0.2h0.1c0.2-0.1,0.2-0.1,0.1-0.2H37.3z M37.8,43.8L37.8,43.8c-0.3-0.1-0.5-0.1-0.5,0H37.8z   M42.3,25l-0.5-0.2h-0.5l-0.5-0.1H38l-0.2,0.1l0.2,0.2l0.8,0.1H41L42.3,25z M42,24.4l-0.5-0.1h-2.9l-0.2,0.1l-0.1,0.1l0.2,0.1h2.9  L42,24.4z M38.6,34.3c0.1,0.2,0.3,0.2,0.6,0.2l1.5,0.1l0.5-0.1v-0.2l-1.2-0.1L38.6,34.3z M38.7,34.8l0.1,0.2l0.8,0.2l2.1-0.1  l-0.1-0.2l-0.2-0.1L41,34.8H38.7z M38.8,33.9l0.7,0.2h0.7c0.4,0,0.7-0.1,0.8-0.2l-1.4-0.1C39.2,33.7,39,33.7,38.8,33.9L38.8,33.9z   M38.9,33l0.5,0.1l0.9-0.2l-0.2-0.2l-0.5-0.1L39,32.8L38.9,33z M42,24.1c-0.1-0.2-0.3-0.3-0.6-0.3h-1.8l-0.7,0.1V24l0.1,0.1h0.5  l0.5,0.1h0.8L42,24.1z M38.9,33.5l1.2,0.1l0.5-0.2l-0.4-0.1h-1L38.9,33.5L38.9,33.5z M39,35.5l0.6,0.1h2.2c0.2,0,0.3-0.1,0.1-0.2  l-0.2-0.1h-0.5l-1.7-0.1C39.2,35.2,39.1,35.3,39,35.5 M39,36l1.4,0.2h2.4c-0.1-0.3-0.3-0.4-0.8-0.4h-2.3C39.3,35.7,39.1,35.8,39,36   M39.1,23.4c0.1,0.2,0.3,0.3,0.7,0.3l0.8,0.1l0.8-0.1c0.4,0,0.6-0.1,0.7-0.2l-0.8-0.1H39.1z M39.1,36.2l0.1,0.2l0.3,0.1l0.8,0.1  l2.1,0.1h1.3l0.7-0.2L44,36.4l-0.9-0.1h-2.3L39.1,36.2z M39.3,7.9V7.8l0.2,0.2H39.3z M39.3,32.6H40v-0.2l-0.2-0.1l-0.5,0.1  L39.3,32.6z M39.4,37l1.6,0.2h1.7l1.6-0.2l-0.5-0.2h-0.5L40,36.7C39.7,36.7,39.5,36.8,39.4,37 M39.5,23l1.8,0.2h0.5l0.5-0.1  l-0.6-0.2h-1.4L39.5,23L39.5,23z M39.5,37.3v0.2l0.4,0.1l0.7,0.1l1.6,0.1l2.1-0.2v-0.2l-1.9-0.1H39.5z M39.7,22.5  c0.4,0.1,0.7,0.2,1.1,0.2c0.4,0,0.7,0,1-0.2l-0.5-0.2l-0.8-0.1C40.1,22.3,39.8,22.4,39.7,22.5 M40,22.1l1.3,0.1  c0.3,0,0.5-0.1,0.5-0.2l-0.6-0.1h-0.7C40.2,21.8,40,21.9,40,22.1 M40,37.8l0.1,0.2h0.2l0.6,0.1l0.9,0.1h0.9l1.1-0.1l-0.3-0.2h-1.4  l-1.7-0.1L40,37.8z M40.5,38.3v0.2l1.7,0.2h1.1l-0.1-0.2l-0.6-0.1H40.5z M40.5,38.8c0,0.2,0.2,0.2,0.6,0.2c0.5,0.1,1.1,0.1,1.9-0.1  l-0.6-0.2H40.5z M40.5,21.6h1.1v-0.2h-1.1V21.6z M40.5,39.5l1.1,0.2h1.1c0.4,0,0.7-0.1,0.8-0.2l-2.2-0.2  C40.8,39.2,40.6,39.3,40.5,39.5 M40.8,20.9v0.2l1.2,0.1V21l-0.5-0.2L40.8,20.9z M41.1,39.9l0.8,0.2H43l0.2-0.2v-0.1l-0.5-0.1h-1.1  L41.1,39.9z M41.1,40.3c0.1,0.2,0.3,0.2,0.5,0.2l1.1-0.1l-0.4-0.2H41.1z M41.2,41l1.4,0.1l0.5-0.2l-1.3-0.1  C41.4,40.8,41.3,40.8,41.2,41 M41.2,41.4c0.3,0.2,0.5,0.3,0.7,0.3c0.2,0,0.3,0,0.4-0.1l0.2-0.1l0.1-0.1c-0.2-0.1-0.4-0.2-0.7-0.2  C41.7,41.2,41.5,41.3,41.2,41.4 M41.3,20.5c0,0.1,0,0.2,0.1,0.2c0.1,0,0.1-0.1,0.2-0.2l0.1-0.1H41.3z M41.3,41.8l0.5,0.2h0.5  c0.3,0,0.4-0.1,0.5-0.2l-0.7-0.1L41.3,41.8z M41.6,31l0.6,0.2h0.4l0.3-0.1c0.3,0,0.4-0.1,0.3-0.2l-0.4-0.1L42,30.8L41.6,31L41.6,31z   M41.7,42.5l0.5-0.1c-0.2-0.2-0.3-0.3-0.5-0.2L41.7,42.5z M41.7,43H42c-0.1-0.3-0.2-0.3-0.2-0.2L41.7,43z M42.3,31.3  c0,0.2,0.1,0.3,0.4,0.3l1-0.2l-0.6-0.1H42.3z M42.9,31.9l0.2,0.1h0.6l0.1-0.1c-0.2-0.1-0.3-0.2-0.5-0.2C43.2,31.8,43,31.8,42.9,31.9   M43.5,32.9c-0.1,0.1-0.2,0.1-0.2,0.2s0.1,0.1,0.2,0.2l0.2-0.1h0.1l0.1-0.2l-0.2-0.1H43.5z M43.6,32.6h0.2v-0.2h-0.2V32.6z M44,36.1  h0.5c0-0.2-0.1-0.2-0.2-0.2c-0.1,0-0.1,0-0.2,0.1L44,36.1z M44.9,11.1c0,0.1,0.1,0.1,0.2,0.1c0.1,0,0.2,0,0.3-0.1H44.9z M45,43  l0.3-0.2L45,43L45,43z M46.4,27.2c0.5,0.1,0.7,0.1,0.8-0.2c-0.2-0.1-0.3-0.1-0.5-0.1C46.5,26.9,46.4,27,46.4,27.2 M46.4,27.5  c0.2,0.3,0.4,0.3,0.6,0.2l0.1-0.1v-0.1l0.1-0.1H46.4z M46.4,27.9c0,0.3,0.1,0.4,0.2,0.4c0.1,0,0.2-0.1,0.4-0.2l0.2-0.2L46.4,27.9z   M46.5,28.6h0.1v-0.2h-0.1V28.6z M46.6,29.6h0.8c-0.1-0.2-0.4-0.3-0.6-0.2L46.6,29.6z M46.6,30.4c0.1,0.2,0.2,0.3,0.3,0.3  c0.1,0,0.2,0,0.3-0.1l0.1-0.1l0.1-0.2H46.6z M47.2,32.6c-0.1-0.2-0.1-0.3-0.2-0.3c-0.1,0-0.2,0-0.2,0.1c-0.2,0.2-0.1,0.2,0.1,0.2  H47.2z M46.7,30c0,0.1,0.1,0.2,0.2,0.2c0.1,0,0.1,0,0.2-0.1l0.1-0.1H46.7z M47.2,14L47.2,14l0.4,0.3c0.2,0.1,0.4,0.1,0.6-0.2v-0.1  L47.2,14z M47.7,14.5c-0.1,0.1-0.2,0.1-0.2,0.2c0,0.1,0.1,0.1,0.2,0.2h0.5l0.1-0.2l-0.1-0.1L47.7,14.5z M48,22.8l0.4,0.1L48,22.8  L48,22.8z M48.1,23.2l0.5,0.2L48.1,23.2L48.1,23.2z M48.1,23.8l0.8,0.1V24L48.1,23.8z M48.3,15.5c0,0.2,0.1,0.3,0.2,0.3  c0.1,0,0.2,0,0.2-0.1l0.2-0.2H48.3z M48.3,16.3h0.3l0.4-0.1l-0.1-0.2c-0.1-0.1-0.2-0.1-0.3-0.1c-0.1,0-0.2,0.1-0.3,0.1V16.3z   M48.5,16.7h0.2l0.2-0.1c0,0,0-0.1-0.1-0.2h-0.2v0.1L48.5,16.7z"></path>
</svg>